<?xml version="1.0" encoding="utf-8"?>
<!-- Generator: Adobe Illustrator 21.0.1, SVG Export Plug-In . SVG Version: 6.00 Build 0)  -->
<svg version="1.1" id="Layer_1" xmlns="http://www.w3.org/2000/svg" xmlns:xlink="http://www.w3.org/1999/xlink" x="0px" y="0px"
	 viewBox="0 0 60 60" style="enable-background:new 0 0 60 60;" xml:space="preserve">
<style type="text/css">
	.st0{fill:none;stroke:#0090FF;stroke-linecap:round;stroke-linejoin:round;}
</style>
<title>icon-design</title>
<line class="st0" x1="21.9" y1="54.6" x2="30" y2="54.6"/>
<polyline class="st0" points="5.6,31.5 5.6,30.8 5.6,30.1 5.8,28.9 "/>
<path class="st0" d="M5.6,31.6v0.6c0.2,10,6.5,18.8,15.8,22.3l0.4,0.1"/>
<line class="st0" x1="54.4" y1="31.6" x2="54.4" y2="31.5"/>
<path class="st0" d="M52.4,22.6l-0.1-0.4C49.4,12.4,40.6,5.6,30.4,5.4H30"/>
<path class="st0" d="M7.6,22.5l0.1-0.4c2.9-9.7,11.7-16.5,21.9-16.6H30"/>
<path class="st0" d="M30,54.6h8.1c9.5-3.4,16-12.3,16.3-22.4v-0.6"/>
<path class="st0" d="M54.4,31.5v-0.6c-0.1-2.4,0-4-1.6-5.9"/>
<line class="st0" x1="5.6" y1="31.5" x2="5.6" y2="31.6"/>
<path class="st0" d="M32.9,42.9l0.6-0.1l0.6-0.2l0.3-0.1c6.6-2.2,10.8-8.7,10-15.6l-0.1-0.7l-0.1-0.6C42.8,18,35.7,13,28,14h-0.3
	l-0.6,0.1l-0.6,0.1l-0.6,0.2c-6.7,2-11,8.5-10.4,15.4v0.3l0.1,0.6c1.2,7.7,8.3,13.1,16.1,12.3l0.6-0.1L32.9,42.9"/>
<path class="st0" d="M30,50.1h-0.9h-0.8c-6.8-0.3-13.1-3.9-16.9-9.6L11.1,40l-0.3-0.5c-2.9-4.6-4.4-10.6-3.4-16L7.5,23l0.1-0.5"/>
<path class="st0" d="M52.4,22.5l0.1,0.5l0.1,0.5c1.1,5.3-0.6,11.5-3.4,16L48.9,40l-0.3,0.5c-3.8,5.7-10.1,9.2-16.9,9.6h-0.8H30"/>
<path class="st0" d="M5.8,28.9v-0.3c0.1-1.2,0.6-2.4,1.4-3.4"/>
</svg>
