<?xml version="1.0" encoding="utf-8"?>
<!-- Generator: Adobe Illustrator 21.0.1, SVG Export Plug-In . SVG Version: 6.00 Build 0)  -->
<svg version="1.1" id="Layer_1" xmlns="http://www.w3.org/2000/svg" xmlns:xlink="http://www.w3.org/1999/xlink" x="0px" y="0px"
	 viewBox="0 0 60 60" style="enable-background:new 0 0 60 60;" xml:space="preserve">
<style type="text/css">
	.st0{fill:#0090FF;}
</style>
<title>icon-wireless</title>
<path class="st0" d="M57,30l1-1C42.5,13.6,17.5,13.6,2,29l1,1C17.9,15.1,42.1,15.1,57,30z"/>
<path class="st0" d="M47.7,35.3c-9.8-9.8-25.6-9.8-35.4,0l1,1c9.2-9.2,24.1-9.2,33.4,0L47.7,35.3z"/>
<path class="st0" d="M22.7,41.6l1,1.1c1.7-1.7,4-2.6,6.4-2.7c2.4,0,4.7,0.9,6.4,2.7l1-1c-4-4.1-10.5-4.1-14.6-0.1
	C22.7,41.6,22.7,41.6,22.7,41.6L22.7,41.6z"/>
</svg>
