<svg xmlns="http://www.w3.org/2000/svg" viewBox="0 0 514 634.79"><defs><style>.a{fill:#fff;}.b{fill:#373737;}</style></defs><title>complex-scenes</title><path class="a" d="M252.3,0h8.5c.2,0,.5.1.7.1,4,.1,8,.3,12.1.6,1.9.2,3.8.3,5.7.5l7.1.9q4.5.6,9,1.5c4.4.9,8.7,1.9,13,3.2a86.5,86.5,0,0,1,13.9,5.3,56.57,56.57,0,0,1,7.5,4.4,28.56,28.56,0,0,1,5.2,4.6,20.62,20.62,0,0,1,3.6,5.6,10.5,10.5,0,0,1,.8,3.5c0,.1.1.2.1.3V33c0,.2-.1.4-.1.6a2.2,2.2,0,0,1-.1.8,14.22,14.22,0,0,1-1.1,3.3,18.64,18.64,0,0,1-4.3,5.7,34.34,34.34,0,0,1-6.2,4.6,56.31,56.31,0,0,1-9.3,4.4A114.39,114.39,0,0,1,302,57.2a18.42,18.42,0,0,1-2.5.5,1.42,1.42,0,0,0-.2.6,16.47,16.47,0,0,0-.6,3.2l-.3,3.6a5.7,5.7,0,0,1-.1,1.3l.6.3a88.94,88.94,0,0,1,13,7.7,58.66,58.66,0,0,1,8.4,7.3,37.23,37.23,0,0,1,4,4.9A15.44,15.44,0,0,1,326,90a8.36,8.36,0,0,1,.4,4.7,13.16,13.16,0,0,1-1.5,3.9,16.54,16.54,0,0,1-3.3,3.7,31.44,31.44,0,0,1-4.8,3.3,60.93,60.93,0,0,1-6.3,3,102.23,102.23,0,0,1-13.3,4.1c-2.7.6-5.4,1.2-8.1,1.6-1.8.3-3.6.6-5.4.8-1.4.2-2.9.4-4.4.5-1.8.2-3.6.4-5.5.5l-4,.3q-3.6.3-7.2.3h-1.5a.37.37,0,0,0-.3.1h-8.4a1.09,1.09,0,0,0-.5-.1c-2.8-.1-5.7-.2-8.5-.4-1.9-.1-3.9-.3-5.8-.5-2.3-.2-4.5-.5-6.8-.7-2.6-.3-5.3-.8-7.9-1.2a118.56,118.56,0,0,1-11.8-2.7,65,65,0,0,1-10.7-3.9,39.33,39.33,0,0,1-6.9-3.9,22.66,22.66,0,0,1-4.3-3.9,14.36,14.36,0,0,1-1.9-3.1,9.14,9.14,0,0,1-.4-6.1,14.7,14.7,0,0,1,1.9-4,28.82,28.82,0,0,1,3-3.9,60.57,60.57,0,0,1,7.5-6.8,82.77,82.77,0,0,1,16.2-9.7c.2-.1.3-.2.5-.2V65c-.1-1.4-.2-2.7-.4-4.1a22.12,22.12,0,0,0-.5-2.5,1.08,1.08,0,0,0-.3-.7c-.2,0-.4-.1-.6-.1-3.9-.8-7.8-1.7-11.6-2.8a77.89,77.89,0,0,1-13.2-5,38.93,38.93,0,0,1-7.8-4.8,26.7,26.7,0,0,1-4.8-4.7,15.23,15.23,0,0,1-3-7.2,1.42,1.42,0,0,0-.2-.6V30.7a.84.84,0,0,0,.2-.7l.3-1.8a15.88,15.88,0,0,1,2.6-5.4,24.34,24.34,0,0,1,4.4-4.7,41.21,41.21,0,0,1,6.5-4.4A63.86,63.86,0,0,1,197.9,9a124,124,0,0,1,21.7-5.8c2-.4,4-.7,6-1l4.7-.6c1.1-.1,2.2-.3,3.3-.4,1.4-.1,2.8-.3,4.2-.4l3.8-.3,5.8-.3c1.6-.1,3.1-.1,4.7-.2ZM256,56.8c2.4,0,4.4,0,6.4-.1,3.2-.1,6.4-.2,9.6-.4,1.8-.1,3.7-.2,5.5-.4,2.1-.2,4.2-.4,6.2-.7,2.4-.3,4.8-.6,7.2-1,3.7-.6,7.3-1.3,10.9-2.1a112.15,112.15,0,0,0,12.9-3.7,65.76,65.76,0,0,0,9.4-4.2A35.07,35.07,0,0,0,330,40a15.24,15.24,0,0,0,3.2-4,9.13,9.13,0,0,0,.5-7.6,15.77,15.77,0,0,0-2.4-3.9,29.23,29.23,0,0,0-4.5-4.1,46.47,46.47,0,0,0-7.8-4.5,98.88,98.88,0,0,0-12.2-4.6,142.56,142.56,0,0,0-20.4-4.4c-2.8-.4-5.6-.8-8.3-1l-6.9-.6c-2.2-.2-4.4-.3-6.6-.4-3.9-.1-7.8-.2-11.7-.1-2.1,0-4.2.1-6.3.2-1.7.1-3.4.1-5.1.3-2.5.2-4.9.4-7.3.7-1.9.2-3.8.4-5.7.7-2.7.3-5.4.8-8.1,1.3a118.64,118.64,0,0,0-13.1,3.1A89.37,89.37,0,0,0,193.9,16a43.79,43.79,0,0,0-8.1,4.7,24.91,24.91,0,0,0-4.5,4.1,13.4,13.4,0,0,0-2.2,3.6,9,9,0,0,0-.4,5.6,10.16,10.16,0,0,0,1.8,3.6,17,17,0,0,0,2.9,3.1,29.79,29.79,0,0,0,5,3.5,60.24,60.24,0,0,0,9.7,4.4,128.49,128.49,0,0,0,20.5,5.3l5.5.9,4.9.6c1.2.1,2.3.3,3.5.4l3.2.3,3.6.3,5,.3c1.6.1,3.3.2,4.9.2A52.77,52.77,0,0,1,256,56.8ZM215.9,71c-.2,0-.3.1-.5.2a80.07,80.07,0,0,0-14.9,9.5,45.31,45.31,0,0,0-5.9,5.7,21.84,21.84,0,0,0-2.2,3.1,15.38,15.38,0,0,0-.8,1.9,5,5,0,0,0-.1,2.1,8.49,8.49,0,0,0,.9,2.2,14.62,14.62,0,0,0,1.6,1.9,17.15,17.15,0,0,0,3.7,2.8,33.62,33.62,0,0,0,6,3,95.88,95.88,0,0,0,11.8,3.9c3,.8,6.1,1.4,9.2,2l5.6.9c1.3.2,2.6.3,3.9.5s2.7.3,4.1.4l3.3.3,4.7.3c1.5.1,3,.1,4.4.2,3.3.1,6.7.1,10,0l7.4-.3,4.5-.3c1.9-.2,3.7-.3,5.6-.5l5.2-.6c2.3-.3,4.6-.7,6.9-1.1a99.66,99.66,0,0,0,11.1-2.6,63.54,63.54,0,0,0,9.8-3.6,33.85,33.85,0,0,0,5.8-3.4,14.28,14.28,0,0,0,2.8-2.7,8.18,8.18,0,0,0,1.2-2,4.69,4.69,0,0,0,.1-3.3,11.11,11.11,0,0,0-.7-1.6,13.67,13.67,0,0,0-2-2.9,35.12,35.12,0,0,0-4.2-4.4,66.18,66.18,0,0,0-9.4-7.1c-2-1.3-4.1-2.5-6.2-3.6-.2-.1-.4-.3-.7-.2v.5a4.9,4.9,0,0,1-1.2,3.2,6.12,6.12,0,0,1-1.7,1.5,18.84,18.84,0,0,1-2.4,1.4,31,31,0,0,1-5.8,2.1A96,96,0,0,1,272.6,83c-1.5.2-2.9.3-4.4.4l-4.9.3c-1.9.1-3.8.1-5.7.1-4.4.1-8.7-.1-13.1-.4-2.3-.2-4.5-.4-6.8-.7-2.7-.4-5.4-.8-8.1-1.4a39.41,39.41,0,0,1-6.9-2.1,19.75,19.75,0,0,1-3.8-2,10.46,10.46,0,0,1-1.9-1.7,6.14,6.14,0,0,1-1.1-2.3,5.7,5.7,0,0,1-.1-1.3v-.8C216,71.1,215.9,71.1,215.9,71Zm61.3-10.5c-.7.1-1.4.1-2.1.2s-1.4.1-2.1.2a14.77,14.77,0,0,1-2.1.1c-.7,0-1.4.1-2.1.1s-1.4.1-2.1.1a14.77,14.77,0,0,0-2.1.1c-.7,0-1.4.1-2.1.1H252s-.84,0-4.2-.2c-.7,0-1.4-.1-2.1-.1s-1.4-.1-2.1-.1-1.4-.1-2.1-.1-1.4-.1-2.1-.1a14.92,14.92,0,0,1-2.1-.2c-.7-.1-1.4-.1-2.1-.2s-1.4-.1-2.1-.2-1.4-.1-2.1-.2a14.92,14.92,0,0,0-2.1-.2l-2.1-.3-2.1-.3-2-.3a18.57,18.57,0,0,1-2.6-.1h0v.3c.1,1,.3,2,.4,3,.2,2.4.4,4.8.4,7.2a20.85,20.85,0,0,1,0,2.5,1.43,1.43,0,0,0,.6,1.2c.2.1.3.3.5.4a12.9,12.9,0,0,0,1.6.9,33.48,33.48,0,0,0,5.3,1.9,87.3,87.3,0,0,0,12.6,2.2c1.5.2,3.1.3,4.6.4l5.7.3c2.6.1,5.3.1,7.9,0,3-.1,6-.2,9-.5,1.7-.2,3.5-.3,5.2-.5a70.49,70.49,0,0,0,7.8-1.3,48.07,48.07,0,0,0,6.5-1.8,18.25,18.25,0,0,0,3.2-1.4,14.63,14.63,0,0,0,1.3-.9,1.09,1.09,0,0,0,.4-.9c0-1.7.1-3.3.1-5a70.21,70.21,0,0,1,.7-7.9v-.4l-2.1.3-2,.3-2.1.3-2.1.3Z"/><path class="a" d="M0,79V76H200v3Z"/><path class="a" d="M314,79V76H514v3Z"/><path class="b" d="M0,596.79v-3H198.61l-3.6,3Z"/><path class="b" d="M317.5,596.79l-3.6-3H514v3Z"/><path class="b" d="M251.61,634.79c-.1,0-.3-.1-.4-.1-1.5-.1-3-.1-4.4-.2l-5.1-.3-3.5-.3c-1.4-.1-2.7-.3-4.1-.4s-2.7-.3-4-.5c-1.7-.2-3.4-.5-5-.7-2.6-.4-5.1-.9-7.6-1.5a103.55,103.55,0,0,1-14.4-4.3,48.29,48.29,0,0,1-7.9-3.9,26.57,26.57,0,0,1-4.6-3.5,14.87,14.87,0,0,1-2.3-2.8,11.66,11.66,0,0,1-1.6-3.6,8.9,8.9,0,0,1,.3-5.1,21.35,21.35,0,0,1,2-4,40.23,40.23,0,0,1,3.7-4.5,63.88,63.88,0,0,1,8.4-7.2,75,75,0,0,1,14-8.1c.1-.1.2-.1.4-.2l.1-.1a5.73,5.73,0,0,0-.4-1.4c-.2,0-.4-.1-.6-.1a122.86,122.86,0,0,1-11.9-3.2,92.66,92.66,0,0,1-12.3-4.9,56.87,56.87,0,0,1-8.5-5.2,27.37,27.37,0,0,1-5.1-5.1,17.34,17.34,0,0,1-2.8-5.4,13.06,13.06,0,0,1,.8-9.7,17.61,17.61,0,0,1,3.3-4.9,31,31,0,0,1,5.1-4.5,54,54,0,0,1,7-4.2,91.07,91.07,0,0,1,13.4-5.3,121.15,121.15,0,0,1,13.5-3.4q4.2-.9,8.4-1.5l6.6-.9c2.2-.3,4.3-.5,6.5-.7l4.3-.3,6.4-.3c2.5-.1,5.1-.1,7.6-.1s5.3.1,7.9.1l6.7.3c2.5.2,5,.4,7.5.7s4.8.5,7.2.9a143.46,143.46,0,0,1,19.5,4,106.69,106.69,0,0,1,14.4,5,59,59,0,0,1,9.5,5.3,34,34,0,0,1,5.7,5,19,19,0,0,1,3.5,5.5,13.43,13.43,0,0,1-1.2,12.5,24.88,24.88,0,0,1-4.7,5.5,50.39,50.39,0,0,1-7.1,5,75.55,75.55,0,0,1-10.4,4.8,110.12,110.12,0,0,1-13.5,4.1l-2.7.6a8.65,8.65,0,0,0-.6,2.3c.2.1.3.2.5.3a88.34,88.34,0,0,1,11.5,6.7,66.52,66.52,0,0,1,8.7,7.2,33.7,33.7,0,0,1,4.6,5.4,15.8,15.8,0,0,1,2,3.6,9.45,9.45,0,0,1-.5,8.5,15.72,15.72,0,0,1-3,3.8,31.44,31.44,0,0,1-5.2,3.8,52.32,52.32,0,0,1-8,3.7,88.06,88.06,0,0,1-12.4,3.6c-3,.7-5.9,1.2-8.9,1.7-2.4.4-4.7.7-7.1,1-2.1.2-4.2.5-6.3.6-1.9.2-3.9.3-5.8.4l-6.4.3c-.1,0-.3.1-.4.1C258.2,634.79,254.9,634.79,251.61,634.79Zm4.9-53.4h0c1.3-.1,2.7,0,4-.1l7.9-.3,4.4-.3c2.3-.2,4.6-.4,6.8-.7,2-.2,4-.5,6-.8,2.9-.4,5.8-.9,8.6-1.5,4.4-.9,8.7-1.9,12.9-3.2a96,96,0,0,0,12.6-4.8,56.57,56.57,0,0,0,7.5-4.4,26.08,26.08,0,0,0,4.6-4.2,12.54,12.54,0,0,0,2.1-3.5,9,9,0,0,0,.4-5.6,14.68,14.68,0,0,0-1.5-3.4,17.5,17.5,0,0,0-2.8-3.3,30.7,30.7,0,0,0-5.9-4.3,70.75,70.75,0,0,0-10-4.8,125.74,125.74,0,0,0-22.6-6.1l-5.4-.9-4.7-.6c-1.2-.1-2.4-.3-3.6-.4-1.5-.1-3-.3-4.5-.4l-4.2-.3-6.6-.3c-2.5-.1-5-.1-7.5-.1-3.8,0-7.5.1-11.3.4-2.6.2-5.1.3-7.7.6-2.1.2-4.2.4-6.2.7-2.8.3-5.6.8-8.4,1.3q-6.15,1.05-12.3,2.7a113.14,113.14,0,0,0-12.8,4.3,55.15,55.15,0,0,0-9,4.7,39,39,0,0,0-5.1,4,16.34,16.34,0,0,0-3.1,4.2,9.74,9.74,0,0,0-1,3.6,9.38,9.38,0,0,0,1.2,4.9,15.17,15.17,0,0,0,2.6,3.5,21.09,21.09,0,0,0,3.6,3.1,52.41,52.41,0,0,0,7.6,4.5,89.9,89.9,0,0,0,11.6,4.5,146.07,146.07,0,0,0,21.8,4.8c2.7.4,5.5.8,8.3,1l7.1.6q3.3.3,6.6.3a36.87,36.87,0,0,0,8,.6Zm-40.6,7.5a1.42,1.42,0,0,0-.6.2,77.59,77.59,0,0,0-14.4,9.1,49.45,49.45,0,0,0-5.8,5.4,16.76,16.76,0,0,0-2.7,3.7,13.55,13.55,0,0,0-1,2.1,4.27,4.27,0,0,0-.1,2.5,3.51,3.51,0,0,0,.6,1.4,8.34,8.34,0,0,0,1.6,2.1,22,22,0,0,0,2.3,2,35,35,0,0,0,5.3,3.1,65.39,65.39,0,0,0,8.7,3.4,118.49,118.49,0,0,0,15.4,3.6c3.5.6,7,1.1,10.5,1.4q3.75.45,7.5.6c2.4.1,4.8.3,7.1.3,3.2.1,6.5.1,9.7.1,2.2-.1,4.4-.1,6.7-.2l4.9-.3c2.3-.2,4.6-.4,6.9-.7,2-.2,4-.5,5.9-.7,2.6-.4,5.2-.8,7.8-1.4,3.8-.8,7.5-1.7,11.1-2.8a58.26,58.26,0,0,0,9-3.6,33,33,0,0,0,5.1-3.1,13.08,13.08,0,0,0,2.4-2.3,8.18,8.18,0,0,0,1.2-2,4.7,4.7,0,0,0,.1-3.5,5.36,5.36,0,0,0-.5-1.1,12.09,12.09,0,0,0-2-3,34,34,0,0,0-4.1-4.4,60.38,60.38,0,0,0-8.9-6.9,64.41,64.41,0,0,0-7.2-4.2,1.42,1.42,0,0,0-.6-.2v.5a4.84,4.84,0,0,1-.7,2.6,6.12,6.12,0,0,1-1.5,1.7,13.41,13.41,0,0,1-2.8,1.8,30.71,30.71,0,0,1-6,2.2,72.28,72.28,0,0,1-10.5,2.1q-4.05.6-8.1.9c-2.1.2-4.2.3-6.3.4-2.9.1-5.9.1-8.8.1-2.7-.1-5.4-.2-8-.4-1.5-.1-3.1-.2-4.6-.4-1.9-.2-3.8-.5-5.7-.8q-3.75-.6-7.5-1.5a35.74,35.74,0,0,1-6-2.1,14.92,14.92,0,0,1-3-1.8,5.36,5.36,0,0,1-1.5-1.5,5.23,5.23,0,0,1-1.2-3.4v-.8c.39,0,.39-.1.29-.2Zm4.6-5.7c0,.5.1.9.1,1.2a43.61,43.61,0,0,1,.3,5.1,1.66,1.66,0,0,0,.5,1.2c.3.2.6.5.9.7a12.77,12.77,0,0,0,1.2.7,26.71,26.71,0,0,0,3.6,1.4,69.72,69.72,0,0,0,11.9,2.4c1.6.2,3.1.4,4.7.5,2.1.2,4.1.3,6.2.4,2.8.1,5.5.2,8.3.1,1.9,0,3.7-.1,5.6-.2l4.7-.3c1.4-.1,2.9-.2,4.3-.4,1.9-.2,3.7-.5,5.6-.8a53.14,53.14,0,0,0,7.7-1.7,30.24,30.24,0,0,0,5-1.9,14,14,0,0,0,1.6-1c.7-.5.7-.6.8-1.5a40.32,40.32,0,0,1,.4-6v-.4a203.79,203.79,0,0,1-36.5,3.2,174,174,0,0,1-36.91-2.7Zm-83.4-62.4c-.1.4-.3.7-.4,1.1l-.6,1.8c-.1.3,0,.4.2.5s.3.1.4.2l20.7,7.2c1,.3,1.9.7,2.9,1,.3.1.4,0,.5-.2.2-.6.5-1.3.7-1.9.1-.2.1-.3.2-.5.1-.4.1-.4-.3-.6-.1,0-.2-.1-.3-.1-7.6-2.7-15.3-5.3-22.9-8-.3-.1-.5-.2-.8-.3-.11-.2-.21-.2-.31-.2Zm244.9,2.7c-.2-.1-.1-.3-.2-.5a15.87,15.87,0,0,1-.7-2v-.2h-.4l-.6.3c-7.4,2.6-14.7,5.1-22.1,7.7-.5.2-.9.3-1.4.5-.2.1-.3.2-.2.5.3.8.6,1.7.9,2.5v.1c.1.2.2.2.4.2s.3-.1.5-.2c7.8-2.7,15.7-5.4,23.5-8.2a.37.37,0,0,0,.3-.1Zm-247,30.9a1.49,1.49,0,0,0,.9.2h25a.76.76,0,0,0,.4-.1c0-.2.1-.3.1-.5v-2.5a.27.27,0,0,0-.24-.3H136.11a3.4,3.4,0,0,0-1,.1,29.2,29.2,0,0,0-.11,3.1Zm3.6,32.2c.2-.1.3-.1.5-.2,7.3-3.5,14.6-6.9,21.9-10.4l.6-.3c.2-.1.3-.2.2-.5a12,12,0,0,0-.8-1.6c-.1-.3-.3-.6-.4-.9s-.2-.2-.4-.1a.76.76,0,0,0-.4.2c-7.4,3.5-14.9,7.1-22.3,10.6-.1.1-.3.1-.4.2a.52.52,0,0,0-.2.4c0,.2.1.1.1.2.3.7.7,1.4,1,2.1.1.1.1.2.2.3s.1.1.2.1S138.5,586.69,138.61,586.59Zm219-13.9c-.1.1-.1.1-.1.2-.4.8-.7,1.5-1.1,2.3,0,.1-.1.1-.1.2a.37.37,0,0,0,.1.3c.2.1.3.2.5.2,6.2,3,12.5,5.9,18.7,8.9,1.2.6,2.4,1.1,3.6,1.7.5.2.6.2.8-.3l.9-1.8c.4-.8.3-.8-.4-1.1-6-2.9-12.1-5.7-18.1-8.6-1.4-.7-2.8-1.3-4.2-2-.2-.1-.3-.1-.5-.2C357.8,572.59,357.7,572.59,357.61,572.69Zm-1.3-18.1h25c.1,0,.2-.1.3-.1a17.07,17.07,0,0,0,0-3.2c-.2-.2-.5-.1-.7-.1h-25.1a.27.27,0,0,0-.3.24.27.27,0,0,0,0,.06v2.9a1.34,1.34,0,0,0,.79.2Z"/></svg>