<?xml version="1.0" encoding="utf-8"?>
<!-- Generator: Adobe Illustrator 20.1.0, SVG Export Plug-In . SVG Version: 6.00 Build 0)  -->
<svg version="1.1" id="Layer_1" xmlns="http://www.w3.org/2000/svg" xmlns:xlink="http://www.w3.org/1999/xlink" x="0px" y="0px"
	 viewBox="0 0 148.1 147.7" style="enable-background:new 0 0 148.1 147.7;" xml:space="preserve">
<style type="text/css">
	.st0{fill:#000000;}
</style>
<path class="st0" d="M2.5,74.4c-0.7,0-1.3-0.3-1.8-0.8c-1-1-0.9-2.6,0.1-3.5L72.3,0.7c1-0.9,2.5-0.9,3.5,0l20.6,20V8.6
	c0-1.4,1.1-2.5,2.5-2.5h19.6c1.4,0,2.5,1.1,2.5,2.5v35.9l26.4,25.6c1,1,1,2.5,0.1,3.5c-1,1-2.5,1-3.5,0.1l-27.1-26.3
	c-0.5-0.5-0.8-1.1-0.8-1.8V11.1h-14.6v15.5c0,1-0.6,1.9-1.5,2.3c-0.9,0.4-2,0.2-2.7-0.5L74.1,6L4.2,73.7C3.8,74.2,3.1,74.4,2.5,74.4
	z"/>
<path class="st0" d="M125.4,147.7H93.2c-1.4,0-2.5-1.1-2.5-2.5V93.9H57.4v51.3c0,1.4-1.1,2.5-2.5,2.5H22.7c-1.4,0-2.5-1.1-2.5-2.5
	V70.3c0-1.4,1.1-2.5,2.5-2.5c1.4,0,2.5,1.1,2.5,2.5v72.4h27.2V91.4c0-1.4,1.1-2.5,2.5-2.5h38.3c1.4,0,2.5,1.1,2.5,2.5v51.3h27.2
	V72.3c0-1.4,1.1-2.5,2.5-2.5c1.4,0,2.5,1.1,2.5,2.5v72.9C127.9,146.6,126.8,147.7,125.4,147.7z"/>
</svg>
