<?xml version="1.0" encoding="utf-8"?>
<!-- Generator: Adobe Illustrator 20.1.0, SVG Export Plug-In . SVG Version: 6.00 Build 0)  -->
<svg version="1.1" id="Layer_1" xmlns="http://www.w3.org/2000/svg" xmlns:xlink="http://www.w3.org/1999/xlink" x="0px" y="0px"
	 viewBox="0 0 166.9 166.9" style="enable-background:new 0 0 166.9 166.9;" xml:space="preserve">
<style type="text/css">
	.st0{fill:#000000;}
</style>
<path class="st0" d="M83.4,166.9c-0.8,0-1.5-0.4-2-1l-14.8-19.7l-22.7,9.7c-0.7,0.3-1.5,0.3-2.2-0.1c-0.7-0.4-1.1-1.1-1.2-1.9
	l-3-24.5l-24.5-3c-0.8-0.1-1.5-0.6-1.9-1.2c-0.4-0.7-0.4-1.5-0.1-2.2l9.6-22.7L1,85.4c-0.6-0.5-1-1.2-1-2c0-0.8,0.4-1.5,1-2
	l19.7-14.8L11,43.9c-0.3-0.7-0.3-1.5,0.1-2.2c0.4-0.7,1.1-1.1,1.9-1.2l15.5-1.9c1.4-0.2,2.6,0.8,2.8,2.2c0.2,1.4-0.8,2.6-2.2,2.8
	l-12.2,1.5l9.1,21.4c0.4,1.1,0.1,2.3-0.8,3l-18.6,14l18.6,14c0.9,0.7,1.2,1.9,0.8,3l-9.1,21.4l23.1,2.8c1.1,0.1,2,1,2.2,2.2
	l2.8,23.1l21.4-9.1c1.1-0.4,2.3-0.1,3,0.8l14,18.6l14-18.6c0.7-0.9,1.9-1.2,3-0.8l21.4,9.1l2.8-23.1c0.1-1.1,1-2,2.2-2.2l23.1-2.8
	l-9.1-21.4c-0.4-1.1-0.1-2.3,0.8-3l18.6-14l-18.6-14c-0.9-0.7-1.2-1.9-0.8-3l9.1-21.4l-23.1-2.8c-1.1-0.1-2-1-2.2-2.2l-2.8-23.1
	l-21.4,9.1c-1.1,0.5-2.3,0.1-3-0.8l-14-18.6l-14,18.6c-0.7,0.9-1.9,1.2-3,0.8L45,16.9l-1.5,12.1c-0.2,1.4-1.4,2.3-2.8,2.2
	c-1.4-0.2-2.3-1.4-2.2-2.8L40.5,13c0.1-0.8,0.6-1.5,1.2-1.9c0.7-0.4,1.5-0.4,2.2-0.1l22.7,9.6L81.4,1c0.5-0.6,1.2-1,2-1
	c0.8,0,1.5,0.4,2,1l14.8,19.7l22.7-9.6c0.7-0.3,1.5-0.3,2.2,0.1c0.7,0.4,1.1,1.1,1.2,1.9l3,24.5l24.5,3c0.8,0.1,1.5,0.6,1.9,1.2
	c0.4,0.7,0.4,1.5,0.1,2.2l-9.6,22.7l19.7,14.8c0.6,0.5,1,1.2,1,2c0,0.8-0.4,1.5-1,2l-19.7,14.8l9.6,22.7c0.3,0.7,0.3,1.5-0.1,2.2
	c-0.4,0.7-1.1,1.1-1.9,1.2l-24.5,3l-3,24.5c-0.1,0.8-0.6,1.5-1.2,1.9c-0.7,0.4-1.5,0.4-2.2,0.1l-22.7-9.7l-14.8,19.7
	C85,166.5,84.2,166.9,83.4,166.9z"/>
<path class="st0" d="M83.4,135.1c-6,0-10.9-4.9-10.9-10.9c0-6,4.9-10.9,10.9-10.9c6,0,10.9,4.9,10.9,10.9
	C94.3,130.2,89.4,135.1,83.4,135.1z M83.4,118.3c-3.2,0-5.9,2.6-5.9,5.9c0,3.2,2.6,5.9,5.9,5.9s5.9-2.6,5.9-5.9
	C89.3,120.9,86.7,118.3,83.4,118.3z"/>
<path class="st0" d="M83.4,108.2c-1.2,0-2.3-0.9-2.5-2.1c-0.9-5.6-8.4-54.7-8.4-59.4c0-6,4.9-10.9,10.9-10.9c6,0,10.9,4.9,10.9,10.9
	c0,4.7-7.5,53.8-8.4,59.4C85.7,107.3,84.7,108.2,83.4,108.2z M83.4,40.8c-3.2,0-5.9,2.6-5.9,5.9c0,2.5,3,23.1,5.9,42.4
	c2.9-19.3,5.9-39.9,5.9-42.4C89.3,43.5,86.7,40.8,83.4,40.8z"/>
</svg>
