<?xml version="1.0" encoding="utf-8"?>
<!-- Generator: Adobe Illustrator 20.1.0, SVG Export Plug-In . SVG Version: 6.00 Build 0)  -->
<svg version="1.1" id="Layer_1" xmlns="http://www.w3.org/2000/svg" xmlns:xlink="http://www.w3.org/1999/xlink" x="0px" y="0px"
	 viewBox="0 0 178.6 147.8" style="enable-background:new 0 0 178.6 147.8;" xml:space="preserve">
<style type="text/css">
	.st0{fill:#000000;}
</style>
<path class="st0" d="M155.9,55.8c-10.4,0-18.8-13-18.8-23.7c0-10.3,8.4-18.8,18.8-18.8c10.3,0,18.8,8.4,18.8,18.8
	C174.7,42.9,166.3,55.8,155.9,55.8z M155.9,19.3c-7.1,0-12.8,5.7-12.8,12.8c0,7.6,6.3,17.8,12.8,17.8c6.5,0,12.8-10.2,12.8-17.8
	C168.7,25.1,162.9,19.3,155.9,19.3z"/>
<path class="st0" d="M173.2,103.8h-6.5c-1.6,0-3-1.3-3-3c0-1.6,1.3-3,3-3h3.8l2-26.9c-2.3-1.2-7.8-3.4-16.6-3.4
	c-12.1,0-17.9,4.1-17.9,4.2c-1,0.8-2.5,0.8-3.5,0l-26.6-19.1c-1.3-1-1.6-2.8-0.7-4.2c1-1.3,2.8-1.6,4.2-0.7l25,18
	c3-1.6,9.4-4.2,19.6-4.2c14.3,0,21.2,5.1,21.5,5.4c0.8,0.6,1.3,1.6,1.2,2.6l-2.4,31.5C176.1,102.6,174.8,103.8,173.2,103.8z"/>
<path class="st0" d="M162.7,141h-13.6c-1.5,0-2.8-1.1-3-2.7l-4-36.6c-0.2-1.6,1-3.1,2.6-3.3c1.6-0.2,3.1,1,3.3,2.6l3.7,34h8.3
	l3.7-34c0.2-1.6,1.6-2.8,3.3-2.6c1.6,0.2,2.8,1.6,2.6,3.3l-4,36.6C165.5,139.8,164.2,141,162.7,141z"/>
<path class="st0" d="M81.5,141c-1,0-2-0.5-2.6-1.5L60.7,108l-18.2,31.5c-0.8,1.4-2.7,1.9-4.1,1.1c-1.4-0.8-1.9-2.7-1.1-4.1
	l20.7-35.9c0.5-0.9,1.5-1.5,2.6-1.5c1.1,0,2.1,0.6,2.6,1.5l20.7,35.9c0.8,1.4,0.3,3.3-1.1,4.1C82.5,140.8,82,141,81.5,141z"/>
<path class="st0" d="M118.5,103.8H3c-1.6,0-3-1.3-3-3V3c0-1.6,1.3-3,3-3h115.5c1.6,0,3,1.3,3,3v35.5c0,1.6-1.3,3-3,3
	c-1.6,0-2.2-1.3-2.2-3V5H5v93.6h111.1V75.3c0-1.6,0.7-3,2.4-3c1.6,0,3,1.3,3,3v25.5C121.5,102.5,120.1,103.8,118.5,103.8z"/>
<path class="st0" d="M60.7,147.8c-1.6,0-3-1.3-3-3v-42.8c0-1.6,1.3-3,3-3c1.6,0,3,1.3,3,3v42.8C63.7,146.5,62.4,147.8,60.7,147.8z"
	/>
<path class="st0" d="M115.6,18.6H3c-1.6,0-3-1.2-3-2.6c0-1.4,1.3-2.6,3-2.6h112.6c1.6,0,3,1.2,3,2.6
	C118.6,17.4,117.3,18.6,115.6,18.6z"/>
<path class="st0" d="M16.8,70.5c-1,0-2-0.5-2.6-1.5c-0.8-1.4-0.3-3.3,1.1-4.1l14.4-8.3c0.8-0.5,1.7-0.5,2.6-0.2l14.2,5.6l13.8-25.4
	c0.5-0.9,1.5-1.5,2.5-1.6c1.1,0,2,0.5,2.6,1.4l12.8,19.6L100.9,28c1-1.3,2.9-1.5,4.2-0.4c1.3,1,1.5,2.9,0.5,4.2L80.3,63
	c-0.6,0.7-1.5,1.1-2.5,1.1c-1,0-1.8-0.6-2.3-1.4L63.2,43.9L50.5,67.3c-0.7,1.3-2.3,1.9-3.7,1.4l-15.3-6.1l-13.2,7.6
	C17.8,70.4,17.3,70.5,16.8,70.5z"/>
</svg>
