<svg xmlns="http://www.w3.org/2000/svg" viewBox="0 0 494.22 180.7"><defs><style>.a,.c,.f,.g{fill:none;}.a,.g{stroke:#bbbaba;}.a,.c,.f{stroke-miterlimit:10;}.a,.c{stroke-width:0.7px;}.b,.e{fill:#bbbaba;}.c,.f{stroke:#bababa;}.d{fill:#bababa;}.e{isolation:isolate;font-size:20px;font-family:OpenSans, Open Sans;}.f,.g{stroke-width:0.72px;}.g{stroke-linecap:round;stroke-linejoin:round;}</style></defs><title>sizes</title><line class="a" x1="89.66" y1="74" x2="89.66" y2="5.4"/><polygon class="b" points="89.66 1.6 94.16 9.2 85.16 9.2 89.66 1.6"/><line class="c" x1="89.66" y1="106.8" x2="89.66" y2="171.6"/><polygon class="d" points="89.66 179.2 85.16 171.6 94.16 171.6 89.66 179.2"/><text class="e" transform="translate(57.12 94.9)">46 mm</text><circle class="f" cx="89.16" cy="90.4" r="88.8"/><rect class="b" x="75.66" width="28" height="1.1"/><rect class="b" x="75.66" y="179.6" width="28" height="1.1"/><path class="g" d="M252.88,38.2l3-1.2c24.4-8.9,52.3-11.3,78.1-9.9l4.1.3,2.4.2,2.4.2c22,2.3,53.8,9.4,69.4,26l1.2,1.3.5.7c6.9,8.9,6.9,18.6-.3,27.3l-.6.8-.7.7-.6.7c-24,24.2-80.3,28.4-111.7,25l-3.4-.4-3.8-.4-3.8-.6c-19.7-2.6-61-13.3-66.5-36.7l-.1-1-.1-.8c-1.2-14.8,14.6-25.2,26.2-30.4l4.3-1.8" transform="translate(-8.01 -8.86)"/><line class="g" x1="362.37" y1="97.04" x2="361.77" y2="117.14"/><line class="g" x1="266.47" y1="117.94" x2="265.77" y2="97.34"/><path class="g" d="M258.78,120.1l1.8-1.2a115.81,115.81,0,0,1,11.4-6.5l2-1" transform="translate(-8.01 -8.86)"/><path class="g" d="M370.28,111.1l2,.9a101.52,101.52,0,0,1,24.6,16.9l1.6,1.5" transform="translate(-8.01 -8.86)"/><path class="g" d="M244.38,131.7l1.7-1.6a99.13,99.13,0,0,1,10.7-8.7l1.9-1.3" transform="translate(-8.01 -8.86)"/><path class="g" d="M399.08,131l.3.4c3,3.3,5.2,7.5,5.2,12v.8" transform="translate(-8.01 -8.86)"/><path class="g" d="M237.88,146.1v-.7c-.1-4.5,2.1-8.7,5-12.1l.8-.9" transform="translate(-8.01 -8.86)"/><path class="g" d="M404.58,144.5l-.1,1.1-.2,1.1c-6,26.6-66.6,32.4-88.7,31.5l-4.2-.1-4.1-.2c-17-.6-64.3-6.5-69.1-29.7l-.2-1.6" transform="translate(-8.01 -8.86)"/><line class="g" x1="362.07" y1="116.84" x2="362.07" y2="116.84"/><path class="g" d="M274.28,126.3h0l.1.1.1.1v.1l.2.2.2.2.4.4.4.4.1.1.1.1.5.4.5.3a31.8,31.8,0,0,0,8.2,3.7l1.6.5,2,.6,2,.5a143.63,143.63,0,0,0,38.7,3l2.8-.1,2.8-.3,2.8-.3,2.7-.3c7.7-1.1,15.5-2.5,22.8-5.5l1.3-.7.6-.3a24,24,0,0,0,2.7-1.6l.4-.3.3-.2a17.88,17.88,0,0,0,1.4-1.3V126l.1-.1.1-.2.1-.2" transform="translate(-8.01 -8.86)"/><line class="g" x1="266.27" y1="117.54" x2="266.27" y2="117.44"/><path class="g" d="M369.28,106.1l-.4.5-.4.4-.3.3c-14.8,13-78.5,13.5-92.7-.4l-.4-.4" transform="translate(-8.01 -8.86)"/><path class="g" d="M400.58,146.6l-.5.6-.5.6-.6.6c-8,8.3-22.4,12.7-33.3,15.3l-1.9.5-2.1.4a222.88,222.88,0,0,1-67.7,2.8l-3.8-.4-3.4-.5-3.4-.5-1.7-.3c-11.8-2.3-26-5.9-35.7-13.4l-.8-.6-.7-.7c-5.7-5.2-6.8-11.6-1.7-17.6l.5-.6.5-.5.6-.6" transform="translate(-8.01 -8.86)"/><path class="g" d="M237.88,146.1v1c4,21.1,58.1,27,72.3,26.8l4.5.2H317c19.7,0,40.1-2,58.9-7.8l1.8-.5,1.6-.6c8.1-2.8,22.2-9.1,24.8-18.3l.2-.8.2-.8.1-.9" transform="translate(-8.01 -8.86)"/><path class="g" d="M398.38,130.4l.5.5c4.3,4.6,5.6,9.7,2,15.2l-.3.5" transform="translate(-8.01 -8.86)"/><polyline class="g" points="265.97 102.74 263.97 103.74 263.07 104.34 262.17 104.94"/><path class="g" d="M377,125.9l.4-.4c4.9-6.2-.9-11.1-6.2-14l-.9-.3" transform="translate(-8.01 -8.86)"/><path class="g" d="M270.18,113.8l-1,.7c-13.9,11.2,7.8,19.2,16.6,21.2l1.1.3,1.2.3,2.5.5a164.11,164.11,0,0,0,61.3-.2l1.3-.3,1.3-.3c6.9-1.6,15.7-4.2,21.2-8.9l.4-.4.8-.8" transform="translate(-8.01 -8.86)"/><polyline class="g" points="361.87 115.34 361.97 115.74 361.97 116.04 361.97 116.44 362.07 116.84"/><polyline class="g" points="266.27 117.44 266.17 117.14 266.27 116.74 266.27 116.34 266.37 115.94"/><line class="g" x1="288.17" y1="17.94" x2="484.97" y2="17.94"/><line class="g" x1="288.17" y1="169.94" x2="484.97" y2="169.94"/><line class="a" x1="461.47" y1="77.44" x2="461.47" y2="21.74"/><polygon class="b" points="461.47 18.04 465.97 25.64 456.97 25.64 461.47 18.04"/><line class="c" x1="461.47" y1="110.24" x2="461.47" y2="165.94"/><polygon class="d" points="461.47 169.64 456.97 162.04 465.97 162.04 461.47 169.64"/><text class="e" transform="translate(428.95 98.34)">30 mm</text></svg>