<svg xmlns="http://www.w3.org/2000/svg" viewBox="0 0 38.92 67.06"><defs><style>.a{fill:none;stroke:#0090ff;stroke-miterlimit:10}</style></defs><title>apps-entrance-door</title><path class="a" d="M3.87.5H35.8a2.61 2.61 0 0 1 2.61 2.61v63.41H.6a.1.1 0 0 1-.1-.1V3.87A3.37 3.37 0 0 1 3.87.5z"/><path class="a" d="M6.69 3.62h26.09a2.61 2.61 0 0 1 2.61 2.61v60.29H3.42a.1.1 0 0 1-.1-.1V7a3.37 3.37 0 0 1 3.37-3.38zM31.85 34.61H30"/><path class="a" d="M19.36 9.56a6 6 0 0 1 6 6v13H13.39v-13a6 6 0 0 1 6-6zM19.36 9.56v19.01M13.39 19.64h12.16"/></svg>