<svg xmlns="http://www.w3.org/2000/svg" viewBox="0 0 65.82 49.76"><defs><style>.a{fill:none;stroke:#0090ff;stroke-miterlimit:10}.b{fill:#0090ff}</style></defs><title>apps-roof-window</title><path class="a" d="M37.87 14.53h19.8l-1.43 4.1L40.78 31.2l-32.5-2 29.59-14.67z"/><path class="a" d="M36.73 12.5h20.66a.54.54 0 0 1 .51.72l-3.52 10.07a.54.54 0 0 1-.15.22L42.95 33.76a.54.54 0 0 1-.4.14L1.01 31.32a.54.54 0 0 1-.21-1l35.69-17.76a.54.54 0 0 1 .24-.06z"/><path class="b" d="M65.42 1a2.81 2.81 0 0 0-2.35-1H35.31a4.83 4.83 0 0 0-3.26 1.79l-11 18 1.56-.63 10.28-16.9A3.91 3.91 0 0 1 35.31 1h27.75a1.88 1.88 0 0 1 1.55.61 1.47 1.47 0 0 1 .1 1.31L50.39 47.43a1.89 1.89 0 0 1-2 1.32l-38.76-2.9A1.91 1.91 0 0 1 8.17 43l6.44-10.58h-1.15l-6.15 10.1a2.91 2.91 0 0 0 2.27 4.42l38.76 2.9h.22a2.9 2.9 0 0 0 2.77-2L65.66 3.23A2.36 2.36 0 0 0 65.42 1z"/><path class="b" d="M16 30.1l4.22-6.93-1.22.5-.11-.24-4.03 6.63 1.14.04zM20.78 30.27l5.9-9.75-1.55.64-5.49 9.07 1.14.04z"/><path class="b" d="M36.08 3l-8.56 14.18 1.55-.65L36.65 4h23.93L46.6 44.01l-32.84-2.16 5.64-9.3-1.14-.04-6.2 10.25 35.24 2.29L61.99 3H36.08z"/></svg>