<svg xmlns="http://www.w3.org/2000/svg" viewBox="0 0 51.79 56.09"><defs><style>.a{fill:none;stroke:#0090ff;stroke-miterlimit:10}</style></defs><title>apps-window</title><path class="a" d="M8.85.5h34.89a2.61 2.61 0 0 1 2.61 2.61v48.47H5.58a.1.1 0 0 1-.1-.1V3.87A3.37 3.37 0 0 1 8.85.5z"/><rect class="a" x=".5" y="51.62" width="50.79" height="3.97" rx="1.42" ry="1.42"/><path class="a" d="M8.45 28.51H24.4v20.06H8.45zM27.39 28.51h16.02v20.06H27.39zM12.46 3.62H24.4v21.95H8.45V7.63a4 4 0 0 1 4.01-4.01zM43.4 25.57h-16V3.62h11.8a4.18 4.18 0 0 1 4.2 4.16z"/></svg>