<svg xmlns="http://www.w3.org/2000/svg" viewBox="0 0 59.31 44.15"><defs><style>.a{fill:#0090ff;stroke:#0090ff;stroke-miterlimit:10;stroke-width:.3px}</style></defs><title>choose-users</title><path class="a" d="M.49 42.44a2.92 2.92 0 0 0 2.78 1.57h32a2.92 2.92 0 0 0 2.79-1.57 4.09 4.09 0 0 0-.5-4.12c-3-4-8.18-7.7-11.79-8.43a2.55 2.55 0 0 1-2.08-1.87 19.32 19.32 0 0 1-.2-2.46 15.32 15.32 0 0 0 4.49-6.38c.8-.2 1.5-1.22 1.75-2.63s-.1-2.65-.81-3.09c0-3.31 0-6.17-1.18-8.35-1.35-2.53-4-3.71-8.53-3.72s-7.08 1.22-8.43 3.71c-1.16 2.17-1.19 5-1.18 8.35-.71.44-1 1.65-.81 3.1s1 2.42 1.75 2.62a15.32 15.32 0 0 0 4.48 6.38 19.14 19.14 0 0 1-.16 2.47 2.55 2.55 0 0 1-2.08 1.87c-3.61.73-8.79 4.43-11.79 8.43a4.09 4.09 0 0 0-.5 4.12zm1.3-3.52c2.82-3.76 7.84-7.37 11.19-8a3.57 3.57 0 0 0 2.85-2.61 19.78 19.78 0 0 0 .19-2.93.5.5 0 0 0-.19-.41 14.25 14.25 0 0 1-4.47-6.39.52.52 0 0 0-.49-.33h-.06c-.26 0-.83-.61-1-1.83s.12-2 .42-2.1a.59.59 0 0 0 .41-.57c0-3.28 0-6.12 1.06-8.14s3.56-3.18 7.65-3.19 6.4 1 7.55 3.19 1.07 4.86 1.06 8.21a.5.5 0 0 0 .41.49c.29.05.61.92.42 2.09s-.79 1.84-1.07 1.84a.5.5 0 0 0-.53.33 14.25 14.25 0 0 1-4.47 6.39.65.65 0 0 0-.19.48 19.31 19.31 0 0 0 .19 2.85 3.57 3.57 0 0 0 2.85 2.61c3.35.68 8.37 4.29 11.19 8a3.14 3.14 0 0 1 .4 3.07 2 2 0 0 1-1.89 1h-32a2 2 0 0 1-1.89-1 3.14 3.14 0 0 1 .42-3.05z"/><path class="a" d="M48.05 25.11a2.17 2.17 0 0 1-1.77-1.59 16.63 16.63 0 0 1-.13-2.11 13.48 13.48 0 0 0 3.91-5.57 2.81 2.81 0 0 0 1.55-2.34 2.76 2.76 0 0 0-.71-2.75c0-2.78 0-5.39-1-7.31C48.71 1.21 46.34.16 42.38.15s-6.24 1.05-7.44 3.29c-1 1.9-1 4.49-1 7.31a2.77 2.77 0 0 0-.71 2.76 2.81 2.81 0 0 0 1.54 2.34 13.48 13.48 0 0 0 3.91 5.57 16.7 16.7 0 0 1-.19 2.1 2.17 2.17 0 0 1-1.8 1.59 15.7 15.7 0 0 0-5.88 3 .5.5 0 0 0 .6.8 14.94 14.94 0 0 1 5.48-2.81 3.19 3.19 0 0 0 2.55-2.33 16.67 16.67 0 0 0 .17-2.58.5.5 0 0 0-.19-.41 12.59 12.59 0 0 1-3.93-5.57.5.5 0 0 0-.53-.33c-.13 0-.67-.48-.86-1.55s.14-1.74.31-1.77a.58.58 0 0 0 .41-.56c0-2.87 0-5.34.92-7.1s3.08-2.75 6.64-2.76 5.56.88 6.56 2.76.93 4.23.92 7.16a.5.5 0 0 0 .41.49c.18 0 .49.67.31 1.76s-.73 1.58-.86 1.56a.5.5 0 0 0-.53.33 12.59 12.59 0 0 1-3.89 5.56.57.57 0 0 0-.19.44 16.45 16.45 0 0 0 .17 2.54 3.19 3.19 0 0 0 2.55 2.34c2.92.59 7.29 3.74 9.76 7a2.69 2.69 0 0 1 .35 2.62 1.63 1.63 0 0 1-1.6.85H41.49a.5.5 0 0 0 0 1h14.9a2.62 2.62 0 0 0 2.49-1.41 3.64 3.64 0 0 0-.44-3.67c-2.67-3.47-7.22-6.72-10.39-7.36z"/></svg>