<svg id="Layer_1" xmlns="http://www.w3.org/2000/svg" viewBox="0 0 44.2 54"><style>.st0,.st1{fill:#fff;stroke:#fff}.st1{stroke-miterlimit:10}</style><title>heating</title><path class="st0" d="M11.5 19c0-.3-.2-.5-.5-.5s-.5.2-.5.5v17.5c-3.6.3-6.3 3.4-6 7 .3 3.6 3.4 6.3 7 6s6.3-3.4 6-7c-.2-3.2-2.8-5.7-6-6V19zm5 24c0 3-2.5 5.5-5.5 5.5S5.5 46 5.5 43 8 37.5 11 37.5s5.5 2.5 5.5 5.5z"/><path class="st0" d="M15.5 33.5V5c0-2.5-2-4.5-4.5-4.5S6.5 2.5 6.5 5v28.5c-3.7 1.7-6 5.4-6 9.5 0 5.8 4.7 10.5 10.5 10.5S21.5 48.8 21.5 43c0-4.1-2.3-7.8-6-9.5zm5 9.5c0 5.2-4.3 9.5-9.5 9.5S1.5 48.2 1.5 43c0-3.8 2.2-7.2 5.7-8.7.2-.1.3-.3.3-.5V5c0-1.9 1.6-3.5 3.5-3.5s3.5 1.6 3.5 3.5v28.8c0 .2.1.4.3.5 3.5 1.5 5.7 4.9 5.7 8.7zM1 9.5h2c.3 0 .5-.2.5-.5s-.2-.5-.5-.5H1c-.3 0-.5.2-.5.5s.2.5.5.5zM3 12.5H1c-.3 0-.5.2-.5.5s.2.5.5.5h2c.3 0 .5-.2.5-.5s-.2-.5-.5-.5zM3 16.5H1c-.3 0-.5.2-.5.5s.2.5.5.5h2c.3 0 .5-.2.5-.5s-.2-.5-.5-.5zM3 20.5H1c-.3 0-.5.2-.5.5s.2.5.5.5h2c.3 0 .5-.2.5-.5s-.2-.5-.5-.5z"/><path class="st0" d="M3 24.5H1c-.3 0-.5.2-.5.5s.2.5.5.5h2c.3 0 .5-.2.5-.5s-.2-.5-.5-.5zM3 28.5H1c-.3 0-.5.2-.5.5s.2.5.5.5h2c.3 0 .5-.2.5-.5s-.2-.5-.5-.5z"/><path class="st1" d="M32.1 3.7c-.1 0-.2.2-.2.3.1 3.4 0 7.4-2 9.6-.3-.6-.7-1.3-1.2-2-.6-.8-1.4-1.6-2.2-1.9-.2-.1-.4.1-.4.3.5 4.2-.1 5.8-.9 7-.4.6-.9 1-1.3 1.6-.4.6-.8 1.3-.9 2.3-.3 1.9-.1 3.7 1 5.2s3.1 2.6 6.3 3.1c.2 0 .4-.3.2-.5-.5-.4-1.1-1.5-1.4-2.6-.2-.9-.2-1.7 0-2.4.3.6.6 1.3 1 1.7.6.6 1.5 1 2.6.8.1 0 .3-.2.2-.3-.3-1.4-.5-2.5-.6-3.3s0-1.4.3-2.1c1.3.7 2.2 1.7 2.6 3 .4 1.4.3 3.2-.5 5.4-.1.2.1.4.3.4 2.4-.4 4.2-1.5 5.4-3s1.8-3.3 2-5.2c.4-3.8-.9-7.9-3-9.9-.1-.1-.4 0-.5.2-.1 1-.3 2.8-.9 4.3-.5 1.4-1.2 2.5-2.4 3.1.7-2.9.8-5.9.4-8.5-.5-2.8-1.7-5.2-3.7-6.4-.1-.2-.1-.2-.2-.2zm.3.9c1.6 1.2 2.6 3.2 3 5.7.5 2.7.3 5.9-.5 8.8-.1.2.1.4.3.4 1.7-.4 2.7-2 3.3-3.6.5-1.4.7-2.8.8-3.8 1.7 2 2.7 5.6 2.4 9-.2 1.8-.8 3.6-1.9 4.9-1 1.3-2.5 2.2-4.6 2.6.7-2.1.8-3.8.4-5.3-.5-1.6-1.5-2.7-3.2-3.5-.1-.1-.3 0-.4.2-.4.9-.5 1.8-.4 2.7.1.8.3 1.8.5 3.1-.8.1-1.4-.2-1.9-.7s-.9-1.3-1.2-2.1c-.1-.2-.4-.2-.5-.1-.6.9-.6 2.2-.3 3.4.2.8.5 1.6.9 2.2-2.6-.6-3.9-1.8-4.8-3-.9-1.5-.8-2-.8-3.8 0-1.3.3-2.2.8-2.8.3-.4.8-.8 1.3-1.4.9-1.2 1.2-3.1.8-6.9.5.3 1.1.8 1.5 1.5.6.8 1.1 1.7 1.4 2.3.1.2.3.2.5.1 2.6-2.4 2.7-6.4 2.6-9.9z"/></svg>