<?xml version="1.0" encoding="utf-8"?>
<!-- Generator: Adobe Illustrator 21.0.2, SVG Export Plug-In . SVG Version: 6.00 Build 0)  -->
<svg version="1.1" id="Layer_1" xmlns="http://www.w3.org/2000/svg" xmlns:xlink="http://www.w3.org/1999/xlink" x="0px" y="0px"
	 viewBox="0 0 228.6 55.8" style="enable-background:new 0 0 228.6 55.8;" xml:space="preserve">
<style type="text/css">
	.st0{fill:none;stroke:#000000;stroke-width:0.36;stroke-linecap:round;stroke-linejoin:round;}
	.st1{fill:#696969;}
	.st2{fill:none;stroke:#696969;stroke-width:6.000000e-02;stroke-linecap:round;stroke-linejoin:round;}
	.st3{font-family:'ArialMT';}
	.st4{font-size:5.85px;}
</style>
<title>size-left</title>
<polyline class="st0" points="20.5,0.7 22.7,0.3 23.8,0.2 24.8,0.2 "/>
<path class="st0" d="M4.9,10.9l0.7-1C9,5.4,13.9,2.2,19.3,0.9l1.2-0.2"/>
<line class="st0" x1="0.7" y1="24.4" x2="0.7" y2="23.2"/>
<polyline class="st0" points="185.2,2 187.3,3 188.3,3.6 189.4,4.3 190.4,4.9 191.3,5.6 192.2,6.4 193.1,7.3 193.9,8.1 194.7,9 
	195.5,10 196.1,10.9 196.8,11.9 197.4,13 197.9,14 198.5,15.1 198.9,16.2 199.6,18.5 199.9,19.6 200.3,22 200.4,23.2 200.5,24.4 "/>
<polyline class="st0" points="175.8,0.2 177,0.2 178.2,0.3 179.4,0.4 180.6,0.7 "/>
<polyline class="st0" points="196.8,47 196.6,47 196.4,47 196.3,47.1 196,47.5 195.8,47.7 195.7,48 195.6,48.3 195.6,48.7 "/>
<polyline class="st0" points="124.1,52.9 124.2,52.9 124.3,53 124.3,53 "/>
<path class="st0" d="M171.8,51.5l-1.3,0.4c-13.7,4.2-28.2,4.9-42.2,2l-1.4-0.3"/>
<path class="st0" d="M160.6,51.5l-1.9,0.4c-8.7,1.3-17.6,1.3-26.3,0l-1.9-0.4"/>
<polyline class="st0" points="126.9,53.6 125.6,53.3 124.3,53 "/>
<line class="st0" x1="124" y1="52.9" x2="124" y2="51.5"/>
<line class="st0" x1="200.9" y1="50.1" x2="195.6" y2="50.1"/>
<line class="st0" x1="200.9" y1="48.7" x2="200.9" y2="50.1"/>
<polyline class="st0" points="195.6,50.1 195.6,48.7 200.9,48.7 "/>
<polyline class="st0" points="196.8,47 200.9,47 200.9,48.7 "/>
<line class="st0" x1="195.2" y1="48.7" x2="195.6" y2="48.7"/>
<line class="st0" x1="196" y1="47" x2="196.7" y2="47"/>
<line class="st0" x1="195.6" y1="50.1" x2="195.2" y2="50.1"/>
<line class="st0" x1="23.2" y1="51.5" x2="28.8" y2="51.5"/>
<line class="st0" x1="23.2" y1="50.1" x2="23.2" y2="51.5"/>
<line class="st0" x1="173.4" y1="51.5" x2="179.1" y2="51.5"/>
<line class="st0" x1="173.4" y1="51.5" x2="28.8" y2="51.5"/>
<line class="st0" x1="179.1" y1="51.5" x2="179.1" y2="50.1"/>
<path class="st0" d="M151.6,25.3L151.6,25.3c0-0.3-0.1-0.4-0.2-0.6l-0.2-0.1"/>
<line class="st0" x1="25.3" y1="0.2" x2="24.8" y2="0.2"/>
<line class="st0" x1="25.3" y1="0.2" x2="175.8" y2="0.2"/>
<line class="st0" x1="0.2" y1="50.1" x2="0.6" y2="24.4"/>
<line class="st0" x1="25.3" y1="50.1" x2="0.2" y2="50.1"/>
<line class="st0" x1="150.2" y1="50.1" x2="148.5" y2="50.1"/>
<path class="st0" d="M195.2,48.5v-0.1c0-0.7,0.4-1.3,1-1.5l0.2-0.1"/>
<line class="st0" x1="195.2" y1="50.1" x2="195.2" y2="48.5"/>
<line class="st0" x1="175.9" y1="50.1" x2="195.2" y2="50.1"/>
<line class="st0" x1="200.8" y1="46.8" x2="200.5" y2="24.4"/>
<line class="st0" x1="196.5" y1="46.8" x2="200.8" y2="46.8"/>
<line class="st0" x1="25.3" y1="50.1" x2="148.5" y2="50.1"/>
<line class="st0" x1="151.8" y1="50.1" x2="175.9" y2="50.1"/>
<polyline class="st0" points="150.2,24.4 150.6,24.4 151.1,24.5 "/>
<polyline class="st0" points="148.5,50.1 148.6,45.4 148.6,40.7 148.7,27.7 148.7,26.5 148.7,25.3 "/>
<polyline class="st0" points="151.8,50.1 151.8,46 151.7,37.7 151.6,29.5 151.6,27.4 151.6,25.3 "/>
<line class="st0" x1="150.2" y1="50.1" x2="151.8" y2="50.1"/>
<path class="st0" d="M150.2,24.4h-0.5c-0.5,0.1-0.6,0.1-1,0.6v0.2"/>
<path class="st0" d="M0.7,23.2l0.1-0.7c0.5-3.9,1.8-7.6,3.8-11l0.4-0.6"/>
<path class="st0" d="M180.6,0.7l0.5,0.1c1.2,0.2,2.4,0.7,3.6,1l0.5,0.2"/>
<polygon class="st1" points="225.7,50 227.8,41.6 223.6,41.6 "/>
<polygon class="st2" points="225.7,50 227.8,41.6 223.6,41.6 "/>
<polygon class="st1" points="225.7,0.3 223.6,8.8 227.8,8.8 "/>
<polygon class="st2" points="225.7,0.3 223.6,8.8 227.8,8.8 "/>
<text transform="matrix(6.123234e-17 -1 1 6.123234e-17 223.44 36.4805)" class="st1 st3 st4">1</text>
<text transform="matrix(6.123234e-17 -1 1 6.123234e-17 223.44 33.1797)" class="st1 st3 st4">7</text>
<text transform="matrix(6.123234e-17 -1 1 6.123234e-17 223.44 29.9297)" class="st1 st3 st4">.</text>
<text transform="matrix(6.123234e-17 -1 1 6.123234e-17 223.44 28.2598)" class="st1 st3 st4">6 mm</text>
<line class="st2" x1="161.7" y1="0.3" x2="228.5" y2="0.3"/>
<line class="st2" x1="184.4" y1="50" x2="228.5" y2="50"/>
<line class="st2" x1="225.7" y1="50" x2="225.7" y2="0.3"/>
</svg>
