<?xml version="1.0" encoding="utf-8"?>
<!-- Generator: Adobe Illustrator 21.0.2, SVG Export Plug-In . SVG Version: 6.00 Build 0)  -->
<svg version="1.1" id="Layer_1" xmlns="http://www.w3.org/2000/svg" xmlns:xlink="http://www.w3.org/1999/xlink" x="0px" y="0px"
	 viewBox="0 0 233.8 177.5" style="enable-background:new 0 0 233.8 177.5;" xml:space="preserve">
<style type="text/css">
	.st0{fill:none;stroke:#000000;stroke-width:0.36;stroke-linecap:round;stroke-linejoin:round;}
	.st1{fill:#696969;}
	.st2{fill:none;stroke:#696969;stroke-width:6.000000e-02;stroke-linecap:round;stroke-linejoin:round;}
	.st3{font-family:'ArialMT';}
	.st4{font-size:5.85px;}
	.st5{opacity:0.5;}
</style>
<title>size-right</title>
<line class="st0" x1="149.4" y1="123.3" x2="149.4" y2="123.3"/>
<polyline class="st0" points="149,123.3 149,123.3 148.9,123.3 148.9,123.3 "/>
<line class="st0" x1="148.8" y1="123.3" x2="148.8" y2="123.3"/>
<line class="st0" x1="151.3" y1="107.2" x2="151.3" y2="107.2"/>
<polyline class="st0" points="151.4,107.2 151.4,107.2 151.5,107.2 151.5,107.2 "/>
<line class="st0" x1="195.9" y1="67.4" x2="195.6" y2="67"/>
<path class="st0" d="M148.6,123.1h-22.6l-0.5,0.1c-14.3,1.1-14.3,21.5,0,22.6l0.5,0.1h48.2c14.8-0.7,15.2-21.4,0.5-22.7l-0.5-0.1
	h-22.6"/>
<path class="st0" d="M149.5,123.3h2.1v-0.1l0.1-0.1l0.1-0.1l-0.3-0.3c-0.7-0.6-1.8-0.6-2.5,0l-0.3,0.3l0.1,0.1v0.1l0.1,0.1"/>
<path class="st0" d="M195.4,98.2l0.2-0.1c7.1-9.2,7.1-22,0-31.1h-0.2"/>
<path class="st0" d="M195.6,98.2l0.6-0.8c6.3-8.8,6.3-20.7,0.1-29.5l-0.6-0.8"/>
<path class="st0" d="M148.5,107.7l0.3,0.3c0.9,0.7,2.3,0.6,3-0.3v-0.1h-0.1l-0.1-0.2l-0.1-0.1v-0.1h-0.1v-0.1"/>
<path class="st0" d="M151.8,107.7h24c7.5,0,14.6-3.4,19.4-9.2v-0.1h0.1v-0.1c7.4-9.2,7.4-22.3,0-31.5v-0.1h-0.1v-0.1l-0.8-1l-1-1
	l-1-0.9c-2.1-1.9-4.5-3.4-7.1-4.4l-1.3-0.5l-1.3-0.4l-1.4-0.4l-1.3-0.2l-1.4-0.2l-1.4-0.1l-1.3-0.1H25.2l-1.1,0.1L23,57.6l-1.2,0.1
	l-1.1,0.2C13,59.3,6.5,64.2,3,71l-0.5,1.1L2,73.3l-0.4,1.2c-4.5,13.1,2.6,27.3,15.7,31.8c2.2,0.8,4.6,1.2,7,1.3l1.1,0.1h123.3
	l0.1-0.1v-0.1l0.1-0.2h0.1v-0.1h2.1"/>
<line class="st0" x1="151" y1="107.2" x2="151.3" y2="107.2"/>
<line class="st0" x1="149.3" y1="123.3" x2="149.1" y2="123.3"/>
<polygon class="st1" points="0.1,7.3 8.7,9.4 8.7,5.1 "/>
<polygon class="st2" points="0.1,7.3 8.7,9.4 8.7,5.1 "/>
<polygon class="st1" points="200.9,7.3 192.4,5.1 192.4,9.4 "/>
<polygon class="st2" points="200.9,7.3 192.4,5.1 192.4,9.4 "/>
<g>
	<text transform="matrix(1 0 0 1 90.44 5.02)" class="st1 st3 st4">7</text>
	<text transform="matrix(1 0 0 1 93.68 5.02)" class="st1 st3 st4">0</text>
	<text transform="matrix(1 0 0 1 96.98 5.02)" class="st1 st3 st4">.</text>
	<text transform="matrix(1 0 0 1 98.6 5.02)" class="st1 st3 st4">7</text>
	<text transform="matrix(1 0 0 1 101.9 5.02)" class="st1 st3 st4">9</text>
</g>
<polygon class="st1" points="220.8,107.7 222.9,99.2 218.7,99.2 "/>
<polygon class="st2" points="220.8,107.7 222.9,99.2 218.7,99.2 "/>
<polygon class="st1" points="220.8,145.8 222.9,137.3 218.7,137.3 "/>
<polygon class="st1" points="220.8,122.8 218.7,131.3 222.9,131.3 "/>
<polygon class="st1" points="220.8,57.5 218.7,66 222.9,66 "/>
<polygon class="st2" points="220.8,57.5 218.7,66 222.9,66 "/>
<g>
	<text transform="matrix(6.123234e-17 -1 1 6.123234e-17 216.7 95.5)" class="st1 st3 st4">1</text>
	<text transform="matrix(6.123234e-17 -1 1 6.123234e-17 216.7 92.2598)" class="st1 st3 st4">7</text>
	<text transform="matrix(6.123234e-17 -1 1 6.123234e-17 216.7 88.96)" class="st1 st3 st4">.</text>
	<text transform="matrix(6.123234e-17 -1 1 6.123234e-17 216.7 87.3398)" class="st1 st3 st4">7</text>
	<text transform="matrix(6.123234e-17 -1 1 6.123234e-17 216.7 84.04)" class="st1 st3 st4">0 mm</text>
</g>
<text transform="matrix(6.123234e-17 -1 1 6.123234e-17 216.7 144.3604)" class="st1 st3 st4">8.0 mm</text>
<polygon class="st1" points="0.1,7.3 8.7,9.4 8.7,5.1 "/>
<polygon class="st2" points="0.1,7.3 8.7,9.4 8.7,5.1 "/>
<polygon class="st1" points="200.9,7.3 192.4,5.1 192.4,9.4 "/>
<polygon class="st2" points="200.9,7.3 192.4,5.1 192.4,9.4 "/>
<g>
	<text transform="matrix(1 0 0 1 90.44 5.02)" class="st1 st3 st4">7</text>
	<text transform="matrix(1 0 0 1 93.68 5.02)" class="st1 st3 st4">0</text>
	<text transform="matrix(1 0 0 1 96.98 5.02)" class="st1 st3 st4">.</text>
	<text transform="matrix(1 0 0 1 98.6 5.02)" class="st1 st3 st4">7</text>
	<text transform="matrix(1 0 0 1 101.9 5.02)" class="st1 st3 st4">9 mm</text>
</g>
<g>
	<text transform="matrix(1 0 0 1 137.44 171.77)" class="st1 st3 st4">24</text>
	<text transform="matrix(1 0 0 1 143.93 171.77)" class="st1 st3 st4">.</text>
	<text transform="matrix(1 0 0 1 145.55 171.77)" class="st1 st3 st4">92 mm</text>
</g>
<line class="st2" x1="0.1" y1="81.1" x2="0.1" y2="4.4"/>
<line class="st2" x1="200.9" y1="81.3" x2="200.9" y2="4.4"/>
<line class="st2" x1="0.1" y1="7.3" x2="200.9" y2="7.3"/>
<line class="st2" x1="177.3" y1="57.5" x2="223.6" y2="57.5"/>
<line class="st2" x1="177.3" y1="123" x2="223.6" y2="123"/>
<line class="st2" x1="177.3" y1="107.7" x2="223.6" y2="107.7"/>
<line class="st2" x1="177.3" y1="145.8" x2="223.6" y2="145.8"/>
<line class="st2" x1="220.8" y1="107.7" x2="220.8" y2="57.5"/>
<line class="st2" x1="220.8" y1="145.8" x2="220.8" y2="123"/>
<polygon class="st1" points="114.9,175.4 123.4,177.5 123.4,173.2 "/>
<polygon class="st1" points="185.8,175.3 177.3,173.2 177.3,177.5 "/>
<line class="st2" x1="114.9" y1="175.4" x2="185.6" y2="175.4"/>
<line class="st2" x1="0.1" y1="81.1" x2="0.1" y2="4.4"/>
<line class="st2" x1="200.9" y1="81.3" x2="200.9" y2="4.4"/>
<line class="st2" x1="185.6" y1="175.4" x2="185.6" y2="134.3"/>
<line class="st2" x1="114.8" y1="175.4" x2="114.8" y2="134.3"/>
<line class="st2" x1="0.1" y1="7.3" x2="200.9" y2="7.3"/>
<g class="st5">
	<path d="M88,78.3v0.9h-4.2v2.5h3.6v0.9h-3.6v3.6h-1v-7.9H88z"/>
	<path d="M89.9,78.3v7.8h-1v-7.8H89.9z"/>
	<path d="M94.2,78.3h0.5h0.6c0.2,0,0.4,0,0.5,0.1c0.1,0,0.3,0.1,0.4,0.2c0.3,0.2,0.5,0.4,0.7,0.6c0.2,0.3,0.3,0.6,0.3,1
		c0,0.4-0.1,0.8-0.3,1.1c-0.2,0.3-0.5,0.5-0.9,0.7l0,0c0.4,0.1,0.8,0.3,1.1,0.7c0.3,0.4,0.4,0.8,0.4,1.2c0,0.3,0,0.6-0.2,0.8
		c-0.1,0.3-0.3,0.5-0.5,0.7c-0.2,0.2-0.5,0.4-0.8,0.5c-0.3,0.1-0.7,0.2-1,0.2h-3.8v-7.8H94.2z M94.5,81.7c0.4,0,0.9-0.1,1.3-0.3
		c0.3-0.2,0.4-0.6,0.4-0.9c0-0.2,0-0.5-0.1-0.7c-0.1-0.2-0.2-0.3-0.4-0.4c-0.2-0.1-0.3-0.1-0.5-0.2c-0.2,0-0.4,0-0.6,0h-2.1v2.5
		L94.5,81.7z M95.1,85.3c0.4,0,0.8-0.1,1.1-0.4c0.3-0.3,0.4-0.6,0.4-1c0-0.2,0-0.4-0.1-0.6c-0.1-0.2-0.2-0.3-0.4-0.4
		c-0.2-0.1-0.3-0.2-0.5-0.2c-0.2,0-0.4-0.1-0.6-0.1h-2.4v2.7L95.1,85.3z"/>
	<path d="M102,78.3l3.1,7.8h-1.2l-0.9-2.4h-3.3l-0.9,2.4h-1.1l3.1-7.8H102z M102.7,82.9l-1.3-3.7l0,0l-1.3,3.7H102.7z"/>
	<path d="M109.2,78.3c0.6,0,1.3,0.2,1.8,0.6c0.4,0.4,0.7,0.9,0.6,1.5c0,0.4-0.1,0.9-0.3,1.2c-0.2,0.4-0.6,0.6-1,0.7l0,0
		c0.2,0,0.4,0.1,0.6,0.2c0.1,0.1,0.3,0.2,0.3,0.4c0.1,0.1,0.2,0.3,0.2,0.5c0,0.2,0.1,0.4,0.1,0.6c0,0.2,0,0.4,0,0.6
		c0,0.2,0,0.4,0.1,0.6c0,0.2,0.1,0.4,0.1,0.5c0.1,0.2,0.1,0.3,0.2,0.5h-1.2c-0.1-0.1-0.1-0.2-0.2-0.3c0-0.2,0-0.3,0-0.5
		c0-0.2,0-0.4,0-0.6c0-0.2,0-0.4-0.1-0.6c0-0.2-0.1-0.4-0.1-0.5c0-0.2-0.1-0.3-0.2-0.4c-0.1-0.1-0.2-0.2-0.4-0.3
		c-0.2-0.1-0.4-0.1-0.6-0.1h-2.6v3.4h-1v-7.8H109.2z M109.4,81.8c0.2,0,0.4-0.1,0.6-0.2c0.2-0.1,0.3-0.3,0.4-0.4
		c0.1-0.2,0.2-0.5,0.2-0.7c0-0.4-0.1-0.7-0.3-1c-0.3-0.3-0.7-0.4-1.1-0.4h-2.6v2.8h2.2C109,81.9,109.2,81.9,109.4,81.8z"/>
	<path d="M112.6,80.7c0.2-0.5,0.4-0.9,0.7-1.3c0.3-0.4,0.7-0.7,1.2-0.9c1-0.5,2.2-0.5,3.3,0c0.5,0.2,0.9,0.5,1.2,0.9
		c0.3,0.4,0.6,0.8,0.7,1.3c0.3,1,0.3,2.1,0,3.1c-0.2,0.5-0.4,0.9-0.7,1.3c-0.3,0.4-0.7,0.7-1.2,0.9c-1,0.4-2.2,0.4-3.3,0
		c-0.5-0.2-0.9-0.5-1.2-0.9c-0.3-0.4-0.6-0.8-0.7-1.3C112.3,82.8,112.3,81.7,112.6,80.7z M113.6,83.4c0.1,0.4,0.3,0.7,0.5,1
		c0.2,0.3,0.5,0.6,0.8,0.7c0.8,0.4,1.7,0.4,2.5,0c0.3-0.2,0.6-0.4,0.8-0.7c0.2-0.3,0.4-0.6,0.5-1c0.2-0.8,0.2-1.6,0-2.3
		c-0.1-0.4-0.3-0.7-0.5-1c-0.2-0.3-0.5-0.6-0.8-0.7c-0.8-0.4-1.7-0.4-2.5,0c-0.3,0.2-0.6,0.4-0.8,0.7c-0.2,0.3-0.4,0.6-0.5,1
		C113.4,81.8,113.4,82.6,113.6,83.4z"/>
</g>
</svg>
