<?xml version="1.0" encoding="utf-8"?>
<!-- Generator: Adobe Illustrator 21.1.0, SVG Export Plug-In . SVG Version: 6.00 Build 0)  -->
<svg version="1.1" id="Badge" xmlns="http://www.w3.org/2000/svg" xmlns:xlink="http://www.w3.org/1999/xlink" x="0px" y="0px"
	 viewBox="0 0 122.5 32.6" style="enable-background:new 0 0 122.5 32.6;" xml:space="preserve">
<style type="text/css">
	.st0{fill:#FFFFFF;}
	.st1{fill:#F79918;}
	.st2{fill:#FAAC28;}
	.st3{fill:#FDBF47;}
	.st4{fill:#FFD364;}
	.st5{fill:#FFF080;}
</style>
<g id="XMLID_2_">
	<g id="XMLID_3109_">
		<path id="XMLID_3113_" class="st0" d="M121.8,6.7c0-0.2,0-0.5,0-0.7c0-0.5,0-1-0.1-1.5c-0.1-0.5-0.2-1-0.5-1.4
			c-0.2-0.5-0.5-0.9-0.9-1.2c-0.4-0.4-0.8-0.7-1.2-0.9c-0.5-0.2-0.9-0.4-1.4-0.5c-0.5-0.1-1-0.1-1.5-0.1c-0.2,0-0.5,0-0.7,0
			c-0.3,0-0.8,0-1.1,0H7.5c-0.3,0-0.6,0-0.8,0c-0.2,0-0.5,0-0.7,0c-0.5,0-1,0-1.5,0.1C4,0.5,3.5,0.7,3,0.9C2.6,1.1,2.2,1.4,1.8,1.8
			C1.4,2.2,1.1,2.6,0.9,3C0.7,3.5,0.5,4,0.4,4.5C0.3,5,0.3,5.5,0.3,6c0,0.2,0,0.5,0,0.7c0,0.3,0,0.5,0,0.8v15.8c0,0.3,0,0.6,0,0.8
			c0,0.2,0,0.5,0,0.7c0,0.5,0,1,0.1,1.5c0.1,0.5,0.2,1,0.5,1.4c0.2,0.5,0.5,0.9,0.9,1.2c0.4,0.4,0.8,0.7,1.2,0.9
			c0.5,0.2,0.9,0.4,1.4,0.5c0.5,0.1,1,0.1,1.5,0.1c0.2,0,0.5,0,0.7,0c0.3,0,0.6,0,0.8,0h106.8c0.3,0,0.8,0,1.1,0c0.2,0,0.5,0,0.7,0
			c0.5,0,1,0,1.5-0.1c0.5-0.1,1-0.2,1.4-0.5c0.5-0.2,0.9-0.5,1.2-0.9c0.4-0.4,0.7-0.8,0.9-1.2c0.2-0.5,0.4-0.9,0.5-1.4
			c0.1-0.5,0.1-1,0.1-1.5c0-0.2,0-0.5,0-0.7c0-0.3,0-0.5,0-0.8V7.5C121.8,7.2,121.8,6.9,121.8,6.7z"/>
		<path id="XMLID_3110_" d="M114.3,0.9c0.3,0,0.8,0,1.1,0c0.2,0,0.4,0,0.6,0l0.1,0c0.4,0,0.9,0,1.4,0.1c0.5,0.1,0.9,0.2,1.3,0.4
			c0.4,0.2,0.8,0.5,1.1,0.8c0.3,0.3,0.6,0.7,0.8,1.1c0.2,0.4,0.3,0.8,0.4,1.3c0.1,0.5,0.1,1,0.1,1.4c0,0.2,0,0.5,0,0.7
			c0,0.3,0,0.5,0,0.8v15.8c0,0.3,0,0.5,0,0.8c0,0.2,0,0.5,0,0.7c0,0.5,0,1-0.1,1.4c-0.1,0.5-0.2,0.9-0.4,1.3
			c-0.2,0.4-0.5,0.8-0.8,1.1c-0.3,0.3-0.7,0.6-1.1,0.8c-0.4,0.2-0.8,0.3-1.3,0.4c-0.5,0.1-1,0.1-1.4,0.1c-0.2,0-0.5,0-0.7,0
			c-0.3,0-0.8,0-1.1,0H7.5c-0.3,0-0.5,0-0.8,0c-0.2,0-0.5,0-0.7,0c-0.4,0-0.9,0-1.4-0.1c-0.5-0.1-0.9-0.2-1.3-0.4
			c-0.4-0.2-0.8-0.5-1.1-0.8c-0.3-0.3-0.6-0.7-0.8-1.1c-0.2-0.4-0.3-0.8-0.4-1.3c-0.1-0.5-0.1-1-0.1-1.4c0-0.2,0-0.3,0-0.5l0-0.2
			v-0.8V7.5l0-0.8l0-0.2c0-0.2,0-0.3,0-0.5c0-0.4,0-0.9,0.1-1.4c0.1-0.5,0.2-0.9,0.4-1.3c0.2-0.4,0.5-0.8,0.8-1.1
			c0.3-0.3,0.7-0.6,1.1-0.8C3.7,1.3,4.1,1.1,4.6,1c0.5-0.1,1-0.1,1.4-0.1l0.2,0c0.2,0,0.4,0,0.5,0l0.8,0H114.3 M114.3,0.3H7.5
			c-0.3,0-0.6,0-0.8,0c-0.2,0-0.5,0-0.7,0c-0.5,0-1,0-1.5,0.1C4,0.5,3.5,0.7,3,0.9C2.6,1.1,2.2,1.4,1.8,1.8C1.4,2.2,1.1,2.6,0.9,3
			C0.7,3.5,0.5,4,0.4,4.5C0.3,5,0.3,5.5,0.3,6c0,0.2,0,0.5,0,0.7c0,0.3,0,0.5,0,0.8v15.8c0,0.3,0,0.6,0,0.8c0,0.2,0,0.5,0,0.7
			c0,0.5,0,1,0.1,1.5c0.1,0.5,0.2,1,0.5,1.4c0.2,0.5,0.5,0.9,0.9,1.2c0.4,0.4,0.8,0.7,1.2,0.9c0.5,0.2,0.9,0.4,1.4,0.5
			c0.5,0.1,1,0.1,1.5,0.1c0.2,0,0.5,0,0.7,0c0.3,0,0.6,0,0.8,0h106.8c0.3,0,0.8,0,1.1,0c0.2,0,0.5,0,0.7,0c0.5,0,1,0,1.5-0.1
			c0.5-0.1,1-0.2,1.4-0.5c0.5-0.2,0.9-0.5,1.2-0.9c0.4-0.4,0.7-0.8,0.9-1.2c0.2-0.5,0.4-0.9,0.5-1.4c0.1-0.5,0.1-1,0.1-1.5
			c0-0.2,0-0.5,0-0.7c0-0.3,0-0.5,0-0.8V7.5c0-0.3,0-0.6,0-0.8c0-0.2,0-0.5,0-0.7c0-0.5,0-1-0.1-1.5c-0.1-0.5-0.2-1-0.5-1.4
			c-0.2-0.5-0.5-0.9-0.9-1.2c-0.4-0.4-0.8-0.7-1.2-0.9c-0.5-0.2-0.9-0.4-1.4-0.5c-0.5-0.1-1-0.1-1.5-0.1c-0.2,0-0.5,0-0.7,0
			C115.1,0.3,114.6,0.3,114.3,0.3L114.3,0.3z"/>
	</g>
	<g id="XMLID_3107_">
		<g>
			<path d="M35.1,21.3h-3.6l-0.9,2.5h-1.5l3.4-9.4h1.6l3.4,9.4H36L35.1,21.3z M31.9,20.2h2.8L33.3,16h0L31.9,20.2z"/>
			<path d="M44.8,20.5c0,2.1-1.1,3.5-2.9,3.5c-1,0-1.8-0.4-2.2-1.2h0v3.4h-1.4V17h1.4v1.1h0c0.4-0.7,1.2-1.2,2.2-1.2
				C43.7,17,44.8,18.3,44.8,20.5z M43.4,20.5c0-1.4-0.7-2.3-1.8-2.3c-1.1,0-1.8,0.9-1.8,2.3c0,1.4,0.7,2.3,1.8,2.3
				C42.7,22.8,43.4,21.9,43.4,20.5z"/>
			<path d="M52.4,20.5c0,2.1-1.1,3.5-2.9,3.5c-1,0-1.8-0.4-2.2-1.2h0v3.4h-1.4V17h1.4v1.1h0c0.4-0.7,1.2-1.2,2.2-1.2
				C51.2,17,52.4,18.3,52.4,20.5z M50.9,20.5c0-1.4-0.7-2.3-1.8-2.3c-1.1,0-1.8,0.9-1.8,2.3c0,1.4,0.7,2.3,1.8,2.3
				C50.2,22.8,50.9,21.9,50.9,20.5z"/>
			<path d="M53.5,14.5h1.4v9.4h-1.4V14.5z"/>
			<path d="M62.2,21.9c-0.2,1.2-1.4,2.1-3,2.1c-2,0-3.2-1.3-3.2-3.5c0-2.1,1.2-3.5,3.2-3.5c1.9,0,3.1,1.3,3.1,3.4v0.5h-4.8v0.1
				c0,1.2,0.7,1.9,1.8,1.9c0.8,0,1.4-0.4,1.6-1H62.2z M57.5,19.8h3.4c0-1-0.7-1.7-1.7-1.7C58.3,18.1,57.6,18.8,57.5,19.8z"/>
			<path d="M72.6,23.9v-4.2h-4.8v4.2h-1.5v-9.4h1.5v4h4.8v-4H74v9.4H72.6z"/>
			<path d="M75.3,20.5c0-2.2,1.3-3.5,3.3-3.5c2,0,3.3,1.4,3.3,3.5c0,2.2-1.3,3.5-3.3,3.5S75.3,22.6,75.3,20.5z M80.3,20.5
				c0-1.5-0.7-2.4-1.8-2.4c-1.1,0-1.8,0.9-1.8,2.4c0,1.5,0.7,2.4,1.8,2.4C79.7,22.8,80.3,21.9,80.3,20.5z"/>
			<path d="M82.9,17h1.3v1.2h0c0.3-0.8,1-1.3,1.9-1.3c1,0,1.6,0.5,1.9,1.3h0c0.4-0.8,1.2-1.3,2.1-1.3c1.4,0,2.2,0.9,2.2,2.3v4.7
				h-1.4v-4.3c0-0.9-0.5-1.4-1.3-1.4s-1.4,0.6-1.4,1.5v4.2H87v-4.4c0-0.8-0.5-1.3-1.3-1.3c-0.8,0-1.4,0.6-1.4,1.5v4.2h-1.4V17z"/>
			<path d="M99.7,21.9c-0.2,1.2-1.4,2.1-3,2.1c-2,0-3.2-1.3-3.2-3.5c0-2.1,1.2-3.5,3.2-3.5c1.9,0,3.1,1.3,3.1,3.4v0.5H95v0.1
				c0,1.2,0.7,1.9,1.8,1.9c0.8,0,1.4-0.4,1.6-1H99.7z M95,19.8h3.4c0-1-0.7-1.7-1.7-1.7C95.8,18.1,95.1,18.8,95,19.8z"/>
			<path d="M101.1,23.9v-9.4h1.5V19h0.1l3.9-4.5h1.7l-3.7,4.2l4,5.2h-1.8l-3.3-4.2l-1,1.1v3.1H101.1z"/>
			<path d="M109.3,15.2c0-0.4,0.4-0.8,0.8-0.8c0.5,0,0.8,0.4,0.8,0.8c0,0.4-0.4,0.8-0.8,0.8C109.6,16,109.3,15.7,109.3,15.2z
				 M109.4,17h1.4v6.9h-1.4V17z"/>
			<path d="M114.1,15.4V17h1.3v1.1h-1.3v3.8c0,0.6,0.3,0.9,0.8,0.9c0.1,0,0.4,0,0.5,0v1.1c-0.2,0-0.5,0.1-0.8,0.1
				c-1.4,0-1.9-0.5-1.9-1.9v-3.9h-1V17h1v-1.6H114.1z"/>
		</g>
	</g>
	<g>
		<path d="M30.8,11.4h-0.7l-1.2-4.5h0.7l0.8,3.5h0l0.9-3.5h0.6l0.9,3.5h0l0.8-3.5h0.7l-1.2,4.5h-0.7l-1-3.3h0L30.8,11.4z"/>
		<path d="M35,9.7C35,8.6,35.7,8,36.7,8c1,0,1.6,0.7,1.6,1.8c0,1.1-0.6,1.8-1.6,1.8C35.7,11.5,35,10.8,35,9.7z M37.6,9.7
			c0-0.7-0.3-1.2-0.9-1.2c-0.6,0-0.9,0.4-0.9,1.2c0,0.7,0.3,1.2,0.9,1.2C37.2,10.9,37.6,10.5,37.6,9.7z"/>
		<path d="M39.2,8h0.6v0.5h0.1C40,8.2,40.3,8,40.8,8c0.1,0,0.2,0,0.3,0v0.7c-0.1,0-0.3,0-0.4,0c-0.5,0-0.9,0.3-0.9,0.8v2h-0.7V8z"/>
		<path d="M43.9,8h0.8l-1.4,1.5l1.5,1.9H44l-1.2-1.5l-0.3,0.3v1.2h-0.7V6.7h0.7v2.7h0.1L43.9,8z"/>
		<path d="M46.6,8c0.8,0,1.3,0.4,1.3,1h-0.6c-0.1-0.2-0.3-0.4-0.7-0.4C46.3,8.5,46,8.7,46,9c0,0.2,0.2,0.3,0.5,0.4l0.6,0.1
			c0.6,0.1,0.9,0.4,0.9,0.9c0,0.6-0.6,1.1-1.4,1.1c-0.8,0-1.3-0.4-1.4-1h0.7c0.1,0.3,0.3,0.4,0.7,0.4c0.4,0,0.7-0.2,0.7-0.5
			c0-0.2-0.2-0.3-0.5-0.4L46.3,10c-0.6-0.2-0.9-0.4-0.9-0.9C45.3,8.4,45.9,8,46.6,8z"/>
		<path d="M54.3,11.4h-0.7l-0.7-2.5h-0.1l-0.7,2.5h-0.7L50.5,8h0.7l0.6,2.6h0.1L52.5,8h0.6l0.7,2.6h0.1L54.5,8h0.7L54.3,11.4z"/>
		<path d="M55.9,7c0-0.2,0.2-0.4,0.4-0.4c0.3,0,0.4,0.2,0.4,0.4c0,0.2-0.2,0.4-0.4,0.4C56.1,7.4,55.9,7.3,55.9,7z M56,8h0.7v3.4H56
			V8z"/>
		<path d="M58.7,7.2v0.9h0.7v0.6h-0.7v1.7c0,0.4,0.1,0.5,0.5,0.5c0.1,0,0.2,0,0.3,0v0.6c-0.1,0-0.2,0-0.4,0c-0.7,0-1-0.3-1-0.9V8.6
			h-0.5V8.1H58V7.2H58.7z"/>
		<path d="M60.4,6.7H61v1.9h0.1c0.2-0.4,0.5-0.6,1-0.6c0.7,0,1.2,0.5,1.2,1.3v2.2h-0.7v-2c0-0.5-0.3-0.8-0.7-0.8
			c-0.5,0-0.9,0.3-0.9,0.9v2h-0.7V6.7z"/>
	</g>
	<g id="XMLID_274_">
		<g id="XMLID_275_">
			<path id="XMLID_286_" class="st1" d="M24.8,13.3c-0.1-0.1-0.8-0.6-1.8-1.4l0,0V8.6c0-0.2-0.1-0.3-0.2-0.3h-1.7
				c-0.2,0-0.3,0-0.3,0.3v1.5l0,0c-2.4-1.9-5-3.9-5.1-4C15.6,6,15.4,6,15.3,6c-0.1,0-0.3,0-0.5,0.2c-0.2,0.2-8.8,7-9.1,7.2
				c-0.3,0.3-0.2,0.6,0.1,0.6c0.3,0,1.7,0,1.7,0s0,8.6,0,9.1c0,0.6,0.2,0.8,0.8,0.8c0.4,0,6.9,0,6.9,0s6.5,0,6.9,0
				c0.6,0,0.8-0.2,0.8-0.8c0-0.5,0-9.1,0-9.1s1.4,0,1.7,0C25.1,13.9,25.2,13.6,24.8,13.3z M21.6,21.8c0,0.4-0.2,0.7-0.6,0.7
				c-0.4,0-5.7,0-5.7,0s-5.2,0-5.7,0c-0.4,0-0.6-0.3-0.6-0.7c0-0.3,0-8.1,0-8.5c0-0.5,0.2-0.8,0.5-1C9.7,12,14.8,8,14.9,7.9
				c0.1-0.1,0.3-0.2,0.4-0.2c0.1,0,0.2,0,0.4,0.2c0.1,0.1,5.2,4.1,5.5,4.3c0.2,0.2,0.5,0.5,0.5,1C21.6,13.6,21.6,21.4,21.6,21.8z"/>
			<path id="XMLID_283_" class="st2" d="M21.1,12.2C20.9,12,15.8,8,15.7,7.9c-0.1-0.1-0.3-0.2-0.4-0.2c-0.1,0-0.2,0-0.4,0.2
				C14.8,8,9.7,12,9.5,12.2c-0.2,0.2-0.5,0.5-0.5,1c0,0.4,0,8.2,0,8.5c0,0.4,0.2,0.7,0.6,0.7c0.4,0,5.7,0,5.7,0s5.2,0,5.7,0
				c0.4,0,0.6-0.3,0.6-0.7c0-0.3,0-8.1,0-8.5C21.6,12.8,21.4,12.4,21.1,12.2z M20.2,20.5c0,0.4-0.2,0.6-0.5,0.6c-0.3,0-4.4,0-4.4,0
				s-4,0-4.4,0s-0.5-0.2-0.5-0.6c0-0.3,0-6.3,0-6.7c0-0.4,0.1-0.6,0.3-0.8c0.1-0.1,4.1-3.2,4.2-3.3c0.1-0.1,0.2-0.1,0.3-0.1
				c0.1,0,0.2,0,0.3,0.1c0.1,0.1,4.1,3.2,4.2,3.3c0.3,0.2,0.3,0.4,0.3,0.8C20.2,14.2,20.2,20.2,20.2,20.5z"/>
			<path id="XMLID_280_" class="st3" d="M19.9,13c-0.1-0.1-4.1-3.2-4.2-3.3c-0.1-0.1-0.2-0.1-0.3-0.1c-0.1,0-0.2,0-0.3,0.1
				c-0.1,0.1-4.1,3.2-4.2,3.3c-0.3,0.2-0.3,0.4-0.3,0.8c0,0.3,0,6.4,0,6.7c0,0.4,0.2,0.6,0.5,0.6s4.4,0,4.4,0s4,0,4.4,0
				c0.3,0,0.5-0.2,0.5-0.6c0-0.3,0-6.3,0-6.7C20.2,13.5,20.1,13.3,19.9,13z M18.8,19.2c0,0.3-0.2,0.4-0.4,0.4c-0.2,0-3.1,0-3.1,0
				s-2.8,0-3.1,0s-0.4-0.1-0.4-0.4c0-0.2,0-4.6,0-4.8s0-0.4,0.2-0.6c0.2-0.1,2.9-2.3,3-2.4c0.1-0.1,0.2-0.1,0.3-0.1
				c0.1,0,0.2,0,0.3,0.1c0.1,0.1,2.8,2.2,3,2.4c0.2,0.2,0.2,0.4,0.2,0.6S18.8,19,18.8,19.2z"/>
			<path id="XMLID_277_" class="st4" d="M18.6,13.9c-0.2-0.1-2.9-2.3-3-2.4c-0.1-0.1-0.2-0.1-0.3-0.1c-0.1,0-0.2,0-0.3,0.1
				c-0.1,0.1-2.8,2.2-3,2.4c-0.2,0.2-0.2,0.4-0.2,0.6s0,4.6,0,4.8c0,0.3,0.2,0.4,0.4,0.4s3.1,0,3.1,0s2.8,0,3.1,0
				c0.2,0,0.4-0.1,0.4-0.4c0-0.2,0-4.6,0-4.8S18.8,14,18.6,13.9z M17.4,17.9c0,0.2-0.1,0.3-0.3,0.3c-0.1,0-1.8,0-1.8,0s-1.7,0-1.8,0
				c-0.2,0-0.3-0.1-0.3-0.3c0-0.2,0-2.8,0-2.9c0-0.2,0.1-0.3,0.2-0.4c0.1-0.1,1.6-1.3,1.7-1.3c0.1,0,0.1-0.1,0.2-0.1s0.1,0,0.2,0.1
				c0.1,0,1.6,1.3,1.7,1.3c0.1,0.1,0.2,0.3,0.2,0.4C17.4,15.2,17.4,17.8,17.4,17.9z"/>
			<path id="XMLID_276_" class="st5" d="M15.3,18.2c0,0,1.7,0,1.8,0c0.2,0,0.3-0.1,0.3-0.3c0-0.2,0-2.8,0-2.9c0-0.2-0.1-0.3-0.2-0.4
				c-0.1-0.1-1.6-1.3-1.7-1.3c-0.1,0-0.1-0.1-0.2-0.1c0,0-0.1,0-0.2,0.1s-1.6,1.3-1.7,1.3c-0.1,0.1-0.2,0.3-0.2,0.4
				c0,0.2,0,2.8,0,2.9c0,0.2,0.1,0.3,0.3,0.3C13.6,18.2,15.3,18.2,15.3,18.2z"/>
		</g>
	</g>
</g>
</svg>
