<svg xmlns="http://www.w3.org/2000/svg" viewBox="0 0 181.1 176.08"><defs><style>.a,.c{fill:none;stroke-linecap:round;stroke-linejoin:round;}.a{stroke:#000;stroke-width:0.54px;}.b,.e{fill:#696969;}.c{stroke:#696969;stroke-width:0.06px;}.d,.e{isolation:isolate;}.e{font-size:9.77px;font-family:ArialMT, Arial;}</style></defs><title>sizes-right</title><polyline class="a" points="129.27 106.71 129.27 108.01 129.37 108.71 129.37 109.31"/><polyline class="a" points="60.57 44.91 60.27 45.01 59.87 45.01 59.17 45.11 58.37 45.11 58.07 45.21 57.77 45.21"/><polyline class="a" points="83.57 104.91 83.77 105.51 84.07 106.21 84.27 106.91 84.57 107.51"/><path class="a" d="M278.4,114.5V116c.5,16,6.8,31.4,16.7,43.9l1,1.3" transform="translate(-192.73 -0.09)"/><path class="a" d="M233,114.5v1.4a64.33,64.33,0,0,1-16.6,41.2l-1,1.1" transform="translate(-192.73 -0.09)"/><path class="a" d="M294.1,164.7l-1,.9a58.68,58.68,0,0,1-15.6,9.8l-1.2.5" transform="translate(-192.73 -0.09)"/><path class="a" d="M235,175.8l-1.2-.5a56.26,56.26,0,0,1-15.6-9.8l-1-.9" transform="translate(-192.73 -0.09)"/><path class="a" d="M278.4,114.5v-.8a29.66,29.66,0,0,0-.8-5.2l-.2-.8" transform="translate(-192.73 -0.09)"/><path class="a" d="M276.3,105l-.5-.9a22.71,22.71,0,0,0-9.7-9.7l-.9-.4" transform="translate(-192.73 -0.09)"/><path class="a" d="M246.2,93.9l-.7.4A22.57,22.57,0,0,0,233,113.7v.8" transform="translate(-192.73 -0.09)"/><line class="a" x1="42.27" y1="175.71" x2="83.57" y2="175.71"/><path class="a" d="M265.2,93.9l-1.1-.5a22.92,22.92,0,0,0-16.7,0l-1.1.5" transform="translate(-192.73 -0.09)"/><line class="a" x1="114.77" y1="68.51" x2="114.77" y2="68.61"/><polyline class="a" points="114.77 68.71 114.77 68.81 114.77 68.81 114.77 68.91 114.77 68.91"/><line class="a" x1="114.77" y1="69.01" x2="114.77" y2="69.01"/><line class="a" x1="114.77" y1="69.11" x2="114.77" y2="69.11"/><polyline class="a" points="114.77 69.21 114.77 69.21 114.77 69.31"/><line class="a" x1="114.77" y1="117.51" x2="114.77" y2="117.41"/><line class="a" x1="114.77" y1="117.11" x2="114.77" y2="116.91"/><line class="a" x1="114.77" y1="116.61" x2="114.77" y2="116.51"/><line class="a" x1="114.77" y1="116.21" x2="114.77" y2="115.91"/><line class="a" x1="114.77" y1="115.71" x2="114.77" y2="115.41"/><line class="a" x1="114.77" y1="113.91" x2="114.77" y2="113.41"/><line class="a" x1="114.77" y1="113.01" x2="114.77" y2="112.91"/><line class="a" x1="114.77" y1="112.41" x2="114.77" y2="112.41"/><line class="a" x1="114.77" y1="112.01" x2="114.77" y2="112.01"/><line class="a" x1="114.77" y1="111.51" x2="114.77" y2="111.51"/><line class="a" x1="114.77" y1="111.11" x2="114.77" y2="111.01"/><line class="a" x1="114.77" y1="110.61" x2="114.77" y2="110.51"/><line class="a" x1="114.77" y1="110.11" x2="114.77" y2="110.01"/><line class="a" x1="114.77" y1="109.61" x2="114.77" y2="109.51"/><line class="a" x1="114.77" y1="109.31" x2="114.77" y2="109.01"/><line class="a" x1="114.77" y1="108.61" x2="114.77" y2="108.51"/><line class="a" x1="114.77" y1="108.11" x2="114.77" y2="108.11"/><line class="a" x1="114.77" y1="107.61" x2="114.77" y2="107.61"/><line class="a" x1="114.77" y1="107.21" x2="114.77" y2="107.11"/><line class="a" x1="114.77" y1="106.71" x2="114.77" y2="106.61"/><line class="a" x1="114.77" y1="106.21" x2="114.77" y2="106.11"/><line class="a" x1="114.77" y1="105.71" x2="114.77" y2="105.71"/><line class="a" x1="114.77" y1="105.21" x2="114.77" y2="104.81"/><line class="a" x1="114.77" y1="103.71" x2="114.77" y2="103.41"/><line class="a" x1="114.77" y1="103.21" x2="114.77" y2="102.91"/><line class="a" x1="114.77" y1="102.71" x2="114.77" y2="102.51"/><line class="a" x1="114.77" y1="102.21" x2="114.77" y2="102.01"/><line class="a" x1="114.77" y1="101.71" x2="114.77" y2="101.61"/><line class="a" x1="114.77" y1="101.21" x2="114.77" y2="101.21"/><line class="a" x1="114.77" y1="100.71" x2="114.77" y2="100.71"/><line class="a" x1="114.77" y1="100.31" x2="114.77" y2="100.21"/><line class="a" x1="114.77" y1="99.81" x2="114.77" y2="99.71"/><line class="a" x1="114.77" y1="99.41" x2="114.77" y2="99.21"/><line class="a" x1="114.77" y1="98.91" x2="114.77" y2="98.71"/><line class="a" x1="114.77" y1="98.51" x2="114.77" y2="98.21"/><line class="a" x1="114.77" y1="98.01" x2="114.77" y2="97.71"/><line class="a" x1="114.77" y1="96.71" x2="114.77" y2="96.71"/><line class="a" x1="114.77" y1="95.81" x2="114.77" y2="95.81"/><polyline class="a" points="114.77 95.31 114.77 95.21 114.77 94.41"/><line class="a" x1="114.77" y1="94.31" x2="114.77" y2="94.01"/><line class="a" x1="114.77" y1="93.81" x2="114.77" y2="93.51"/><line class="a" x1="114.77" y1="93.31" x2="114.77" y2="93.11"/><line class="a" x1="114.77" y1="92.81" x2="114.77" y2="92.61"/><line class="a" x1="114.77" y1="92.31" x2="114.77" y2="92.21"/><line class="a" x1="114.77" y1="91.91" x2="114.77" y2="91.81"/><line class="a" x1="114.77" y1="91.41" x2="114.77" y2="91.31"/><line class="a" x1="114.77" y1="90.91" x2="114.77" y2="90.91"/><line class="a" x1="114.77" y1="90.51" x2="114.77" y2="90.41"/><line class="a" x1="114.77" y1="90.01" x2="114.77" y2="90.01"/><line class="a" x1="114.77" y1="89.61" x2="114.77" y2="89.51"/><line class="a" x1="114.77" y1="89.21" x2="114.77" y2="89.01"/><line class="a" x1="114.77" y1="88.71" x2="114.77" y2="88.61"/><line class="a" x1="114.77" y1="88.31" x2="114.77" y2="88.11"/><line class="a" x1="114.77" y1="87.81" x2="114.77" y2="87.71"/><line class="a" x1="114.77" y1="86.81" x2="114.77" y2="86.61"/><line class="a" x1="114.77" y1="86.41" x2="114.77" y2="86.21"/><line class="a" x1="114.77" y1="85.91" x2="114.77" y2="85.71"/><line class="a" x1="114.77" y1="85.51" x2="114.77" y2="85.31"/><line class="a" x1="114.77" y1="85.11" x2="114.77" y2="84.91"/><line class="a" x1="114.77" y1="84.71" x2="114.77" y2="84.51"/><line class="a" x1="114.77" y1="84.41" x2="114.77" y2="84.11"/><line class="a" x1="114.77" y1="84.01" x2="114.77" y2="83.71"/><line class="a" x1="114.77" y1="83.61" x2="114.77" y2="83.31"/><line class="a" x1="114.77" y1="83.21" x2="114.77" y2="82.91"/><line class="a" x1="114.77" y1="82.81" x2="114.77" y2="82.51"/><line class="a" x1="114.77" y1="82.41" x2="114.77" y2="82.11"/><line class="a" x1="114.77" y1="82.01" x2="114.77" y2="81.71"/><line class="a" x1="114.77" y1="81.61" x2="114.77" y2="81.41"/><line class="a" x1="114.77" y1="81.21" x2="114.77" y2="80.91"/><line class="a" x1="114.77" y1="80.81" x2="114.77" y2="80.61"/><line class="a" x1="114.77" y1="80.51" x2="114.77" y2="80.21"/><line class="a" x1="114.77" y1="80.11" x2="114.77" y2="79.91"/><line class="a" x1="114.77" y1="79.71" x2="114.77" y2="79.51"/><line class="a" x1="114.77" y1="79.31" x2="114.77" y2="79.11"/><line class="a" x1="114.77" y1="79.01" x2="114.77" y2="78.81"/><line class="a" x1="114.77" y1="78.71" x2="114.77" y2="78.41"/><line class="a" x1="114.77" y1="78.31" x2="114.77" y2="78.11"/><line class="a" x1="114.77" y1="77.91" x2="114.77" y2="77.81"/><line class="a" x1="114.77" y1="77.61" x2="114.77" y2="77.41"/><line class="a" x1="114.77" y1="77.31" x2="114.77" y2="77.11"/><line class="a" x1="114.77" y1="77.01" x2="114.77" y2="76.81"/><line class="a" x1="114.77" y1="76.61" x2="114.77" y2="76.41"/><line class="a" x1="114.77" y1="76.31" x2="114.77" y2="76.11"/><line class="a" x1="114.77" y1="76.01" x2="114.77" y2="75.81"/><line class="a" x1="114.77" y1="75.71" x2="114.77" y2="75.51"/><line class="a" x1="114.77" y1="75.41" x2="114.77" y2="75.21"/><line class="a" x1="114.77" y1="75.11" x2="114.77" y2="74.31"/><line class="a" x1="114.77" y1="74.21" x2="114.77" y2="74.01"/><line class="a" x1="114.77" y1="73.91" x2="114.77" y2="73.81"/><polyline class="a" points="114.77 73.61 114.77 73.11 114.77 72.81 114.77 72.71"/><line class="a" x1="114.77" y1="72.61" x2="114.77" y2="72.41"/><polyline class="a" points="114.77 72.41 114.77 72.21 114.77 72.01"/><polyline class="a" points="114.77 71.91 114.77 71.81 114.77 71.61"/><polyline class="a" points="114.77 71.51 114.77 71.31 114.77 71.31"/><polyline class="a" points="114.77 71.11 114.77 71.01 114.77 70.81"/><polyline class="a" points="114.77 70.51 114.77 70.21 114.77 70.11"/><line class="a" x1="114.77" y1="70.01" x2="114.77" y2="70.01"/><polyline class="a" points="114.77 69.91 114.77 69.81 114.77 69.71 114.77 69.61"/><line class="a" x1="114.77" y1="69.51" x2="114.77" y2="69.31"/><line class="a" x1="114.77" y1="150.11" x2="114.77" y2="150.11"/><line class="a" x1="114.77" y1="150.01" x2="114.77" y2="149.91"/><line class="a" x1="114.77" y1="149.61" x2="114.77" y2="149.61"/><line class="a" x1="114.77" y1="149.51" x2="114.77" y2="149.51"/><line class="a" x1="114.77" y1="149.41" x2="114.77" y2="149.41"/><line class="a" x1="114.77" y1="149.31" x2="114.77" y2="149.31"/><line class="a" x1="114.77" y1="149.11" x2="114.77" y2="149.11"/><line class="a" x1="114.77" y1="149.01" x2="114.77" y2="149.01"/><line class="a" x1="114.77" y1="148.91" x2="114.77" y2="148.91"/><line class="a" x1="114.77" y1="148.31" x2="114.77" y2="148.31"/><line class="a" x1="114.77" y1="148.11" x2="114.77" y2="147.81"/><line class="a" x1="114.77" y1="146.21" x2="114.77" y2="146.21"/><line class="a" x1="114.77" y1="146.01" x2="114.77" y2="146.01"/><line class="a" x1="114.77" y1="145.71" x2="114.77" y2="145.71"/><line class="a" x1="114.77" y1="145.51" x2="114.77" y2="145.51"/><line class="a" x1="114.77" y1="145.31" x2="114.77" y2="145.31"/><line class="a" x1="114.77" y1="145.01" x2="114.77" y2="145.01"/><line class="a" x1="114.77" y1="143.81" x2="114.77" y2="143.61"/><line class="a" x1="114.77" y1="140.21" x2="114.77" y2="140.11"/><line class="a" x1="114.77" y1="139.91" x2="114.77" y2="139.71"/><line class="a" x1="114.77" y1="139.51" x2="114.77" y2="139.41"/><line class="a" x1="114.77" y1="139.11" x2="114.77" y2="139.01"/><line class="a" x1="114.77" y1="138.81" x2="114.77" y2="138.71"/><line class="a" x1="114.77" y1="138.41" x2="114.77" y2="138.31"/><line class="a" x1="114.77" y1="138.11" x2="114.77" y2="137.91"/><line class="a" x1="114.77" y1="137.61" x2="114.77" y2="137.61"/><line class="a" x1="114.77" y1="137.31" x2="114.77" y2="137.21"/><line class="a" x1="114.77" y1="136.91" x2="114.77" y2="136.81"/><line class="a" x1="114.77" y1="136.51" x2="114.77" y2="136.41"/><line class="a" x1="114.77" y1="136.11" x2="114.77" y2="136.01"/><line class="a" x1="114.77" y1="135.71" x2="114.77" y2="135.61"/><line class="a" x1="114.77" y1="129.11" x2="114.77" y2="129.11"/><line class="a" x1="114.77" y1="128.61" x2="114.77" y2="128.61"/><line class="a" x1="114.77" y1="128.21" x2="114.77" y2="128.21"/><line class="a" x1="114.77" y1="127.71" x2="114.77" y2="127.71"/><line class="a" x1="114.77" y1="127.31" x2="114.77" y2="127.31"/><line class="a" x1="114.77" y1="126.81" x2="114.77" y2="126.81"/><line class="a" x1="114.77" y1="124.21" x2="114.77" y2="123.71"/><line class="a" x1="114.77" y1="122.81" x2="114.77" y2="122.01"/><line class="a" x1="114.77" y1="119.91" x2="114.77" y2="119.71"/><line class="a" x1="114.77" y1="119.41" x2="114.77" y2="119.31"/><line class="a" x1="114.77" y1="118.91" x2="114.77" y2="118.81"/><line class="a" x1="114.77" y1="118.41" x2="114.77" y2="118.41"/><line class="a" x1="114.77" y1="118.01" x2="114.77" y2="117.91"/><line class="a" x1="69.17" y1="44.91" x2="71.47" y2="45.11"/><polyline class="a" points="64.77 44.81 66.87 44.91 69.07 44.91"/><path class="a" d="M264.6,45.3l1.5.2a64.54,64.54,0,0,1,40.4,21.9l1,1.2" transform="translate(-192.73 -0.09)"/><path class="a" d="M307.5,150.2l-1.3,1.5a55.64,55.64,0,0,1-8.6,8.2l-1.6,1.2" transform="translate(-192.73 -0.09)"/><polyline class="a" points="71.87 45.21 71.87 45.21 71.57 45.21"/><line class="a" x1="71.57" y1="45.21" x2="71.57" y2="45.21"/><line class="a" x1="71.47" y1="45.11" x2="71.47" y2="45.11"/><polyline class="a" points="71.37 45.11 71.37 45.11 71.37 45.11 70.97 45.11 70.77 45.11 70.47 45.11"/><polyline class="a" points="114.77 150.11 114.77 150.11 114.77 150.01"/><polyline class="a" points="114.77 149.91 114.77 149.61 114.77 149.51"/><polyline class="a" points="114.77 149.51 114.77 149.41 114.77 149.31"/><polyline class="a" points="114.77 149.31 114.77 149.11 114.77 149.01"/><line class="a" x1="114.77" y1="149.01" x2="114.77" y2="148.91"/><line class="a" x1="114.77" y1="148.91" x2="114.77" y2="148.31"/><line class="a" x1="114.77" y1="148.31" x2="114.77" y2="148.11"/><line class="a" x1="114.77" y1="147.81" x2="114.77" y2="146.21"/><polyline class="a" points="114.77 146.21 114.77 146.01 114.77 145.71 114.77 145.51 114.77 145.31 114.77 145.01 114.77 143.81"/><line class="a" x1="114.77" y1="143.61" x2="114.77" y2="140.21"/><line class="a" x1="114.77" y1="140.11" x2="114.77" y2="139.91"/><line class="a" x1="114.77" y1="139.71" x2="114.77" y2="139.51"/><line class="a" x1="114.77" y1="139.41" x2="114.77" y2="139.11"/><line class="a" x1="114.77" y1="139.01" x2="114.77" y2="138.81"/><line class="a" x1="114.77" y1="138.71" x2="114.77" y2="138.41"/><line class="a" x1="114.77" y1="138.31" x2="114.77" y2="138.11"/><line class="a" x1="114.77" y1="137.91" x2="114.77" y2="137.61"/><line class="a" x1="114.77" y1="137.61" x2="114.77" y2="137.31"/><line class="a" x1="114.77" y1="137.21" x2="114.77" y2="136.91"/><line class="a" x1="114.77" y1="136.81" x2="114.77" y2="136.51"/><line class="a" x1="114.77" y1="136.41" x2="114.77" y2="136.11"/><line class="a" x1="114.77" y1="136.01" x2="114.77" y2="135.71"/><line class="a" x1="114.77" y1="135.61" x2="114.77" y2="129.11"/><polyline class="a" points="114.77 129.11 114.77 128.61 114.77 128.21 114.77 127.71"/><line class="a" x1="114.77" y1="127.71" x2="114.77" y2="127.31"/><line class="a" x1="114.77" y1="127.31" x2="114.77" y2="126.81"/><line class="a" x1="114.77" y1="126.81" x2="114.77" y2="124.21"/><line class="a" x1="114.77" y1="123.71" x2="114.77" y2="122.81"/><line class="a" x1="114.77" y1="122.01" x2="114.77" y2="119.91"/><line class="a" x1="114.77" y1="119.71" x2="114.77" y2="119.41"/><line class="a" x1="114.77" y1="119.31" x2="114.77" y2="118.91"/><line class="a" x1="114.77" y1="118.81" x2="114.77" y2="118.41"/><line class="a" x1="114.77" y1="118.41" x2="114.77" y2="118.01"/><line class="a" x1="114.77" y1="117.91" x2="114.77" y2="117.51"/><line class="a" x1="114.77" y1="117.41" x2="114.77" y2="117.11"/><line class="a" x1="114.77" y1="116.91" x2="114.77" y2="116.61"/><line class="a" x1="114.77" y1="116.51" x2="114.77" y2="116.21"/><line class="a" x1="114.77" y1="115.91" x2="114.77" y2="115.71"/><line class="a" x1="114.77" y1="115.41" x2="114.77" y2="113.91"/><line class="a" x1="114.77" y1="113.41" x2="114.77" y2="113.01"/><polyline class="a" points="114.77 112.91 114.77 112.41 114.77 112.01 114.77 111.51"/><line class="a" x1="114.77" y1="111.51" x2="114.77" y2="111.11"/><line class="a" x1="114.77" y1="111.01" x2="114.77" y2="110.61"/><line class="a" x1="114.77" y1="110.51" x2="114.77" y2="110.11"/><line class="a" x1="114.77" y1="110.01" x2="114.77" y2="109.61"/><line class="a" x1="114.77" y1="109.51" x2="114.77" y2="109.31"/><polyline class="a" points="70.47 45.11 71.17 45.11 71.87 45.21"/><line class="a" x1="69.57" y1="45.01" x2="69.47" y2="45.01"/><polyline class="a" points="69.47 45.01 69.47 45.01 69.37 45.01 69.27 45.01"/><line class="a" x1="69.07" y1="44.91" x2="69.07" y2="44.91"/><line class="a" x1="114.77" y1="109.31" x2="114.77" y2="109.31"/><line class="a" x1="114.77" y1="109.01" x2="114.77" y2="108.61"/><line class="a" x1="114.77" y1="108.51" x2="114.77" y2="108.11"/><line class="a" x1="114.77" y1="108.11" x2="114.77" y2="107.61"/><line class="a" x1="114.77" y1="107.61" x2="114.77" y2="107.21"/><line class="a" x1="114.77" y1="107.11" x2="114.77" y2="106.71"/><line class="a" x1="114.77" y1="106.61" x2="114.77" y2="106.21"/><line class="a" x1="114.77" y1="106.11" x2="114.77" y2="105.71"/><line class="a" x1="114.77" y1="105.71" x2="114.77" y2="105.21"/><line class="a" x1="114.77" y1="104.81" x2="114.77" y2="103.71"/><line class="a" x1="114.77" y1="103.41" x2="114.77" y2="103.21"/><line class="a" x1="114.77" y1="102.91" x2="114.77" y2="102.71"/><line class="a" x1="114.77" y1="102.51" x2="114.77" y2="102.21"/><line class="a" x1="114.77" y1="102.01" x2="114.77" y2="101.71"/><line class="a" x1="114.77" y1="101.61" x2="114.77" y2="101.21"/><polyline class="a" points="114.77 101.21 114.77 100.71 114.77 100.31"/><line class="a" x1="114.77" y1="100.21" x2="114.77" y2="99.81"/><line class="a" x1="114.77" y1="99.71" x2="114.77" y2="99.41"/><line class="a" x1="114.77" y1="99.21" x2="114.77" y2="98.91"/><line class="a" x1="114.77" y1="98.71" x2="114.77" y2="98.51"/><line class="a" x1="114.77" y1="98.21" x2="114.77" y2="98.01"/><line class="a" x1="114.77" y1="97.71" x2="114.77" y2="96.71"/><polyline class="a" points="114.77 96.71 114.77 95.81 114.77 95.31"/><line class="a" x1="114.77" y1="95.21" x2="114.77" y2="95.21"/><line class="a" x1="114.77" y1="94.41" x2="114.77" y2="94.31"/><line class="a" x1="114.77" y1="94.01" x2="114.77" y2="93.81"/><line class="a" x1="114.77" y1="93.51" x2="114.77" y2="93.31"/><line class="a" x1="114.77" y1="93.11" x2="114.77" y2="92.81"/><line class="a" x1="114.77" y1="92.61" x2="114.77" y2="92.31"/><line class="a" x1="114.77" y1="92.21" x2="114.77" y2="91.91"/><line class="a" x1="114.77" y1="91.81" x2="114.77" y2="91.41"/><polyline class="a" points="114.77 91.31 114.77 90.91 114.77 90.51"/><polyline class="a" points="114.77 90.41 114.77 90.01 114.77 89.61"/><line class="a" x1="114.77" y1="89.51" x2="114.77" y2="89.21"/><line class="a" x1="114.77" y1="89.01" x2="114.77" y2="88.71"/><line class="a" x1="114.77" y1="88.61" x2="114.77" y2="88.31"/><line class="a" x1="114.77" y1="88.11" x2="114.77" y2="87.81"/><line class="a" x1="114.77" y1="87.71" x2="114.77" y2="86.81"/><line class="a" x1="114.77" y1="86.61" x2="114.77" y2="86.41"/><line class="a" x1="114.77" y1="86.21" x2="114.77" y2="85.91"/><line class="a" x1="114.77" y1="85.71" x2="114.77" y2="85.51"/><line class="a" x1="114.77" y1="85.31" x2="114.77" y2="85.11"/><line class="a" x1="114.77" y1="84.91" x2="114.77" y2="84.71"/><line class="a" x1="114.77" y1="84.51" x2="114.77" y2="84.41"/><line class="a" x1="114.77" y1="84.11" x2="114.77" y2="84.01"/><line class="a" x1="114.77" y1="83.71" x2="114.77" y2="83.61"/><line class="a" x1="114.77" y1="83.31" x2="114.77" y2="83.21"/><line class="a" x1="114.77" y1="82.91" x2="114.77" y2="82.81"/><line class="a" x1="114.77" y1="82.51" x2="114.77" y2="82.41"/><line class="a" x1="114.77" y1="82.11" x2="114.77" y2="82.01"/><line class="a" x1="114.77" y1="81.71" x2="114.77" y2="81.61"/><line class="a" x1="114.77" y1="81.41" x2="114.77" y2="81.21"/><line class="a" x1="114.77" y1="80.91" x2="114.77" y2="80.81"/><line class="a" x1="114.77" y1="80.61" x2="114.77" y2="80.51"/><line class="a" x1="114.77" y1="80.21" x2="114.77" y2="80.11"/><line class="a" x1="114.77" y1="79.91" x2="114.77" y2="79.71"/><line class="a" x1="114.77" y1="79.51" x2="114.77" y2="79.31"/><line class="a" x1="114.77" y1="79.11" x2="114.77" y2="79.01"/><line class="a" x1="114.77" y1="78.81" x2="114.77" y2="78.71"/><line class="a" x1="114.77" y1="78.41" x2="114.77" y2="78.31"/><line class="a" x1="114.77" y1="78.11" x2="114.77" y2="77.91"/><line class="a" x1="114.77" y1="77.81" x2="114.77" y2="77.61"/><line class="a" x1="114.77" y1="77.41" x2="114.77" y2="77.31"/><line class="a" x1="114.77" y1="77.11" x2="114.77" y2="77.01"/><line class="a" x1="114.77" y1="76.81" x2="114.77" y2="76.61"/><line class="a" x1="114.77" y1="76.41" x2="114.77" y2="76.31"/><line class="a" x1="114.77" y1="76.11" x2="114.77" y2="76.01"/><line class="a" x1="114.77" y1="75.81" x2="114.77" y2="75.71"/><line class="a" x1="114.77" y1="75.51" x2="114.77" y2="75.41"/><line class="a" x1="114.77" y1="75.21" x2="114.77" y2="75.11"/><line class="a" x1="114.77" y1="74.31" x2="114.77" y2="74.21"/><line class="a" x1="114.77" y1="74.01" x2="114.77" y2="73.91"/><line class="a" x1="114.77" y1="73.81" x2="114.77" y2="73.61"/><line class="a" x1="114.77" y1="73.11" x2="114.77" y2="73.11"/><line class="a" x1="114.77" y1="72.81" x2="114.77" y2="72.81"/><line class="a" x1="114.77" y1="72.71" x2="114.77" y2="72.61"/><line class="a" x1="114.77" y1="72.41" x2="114.77" y2="72.41"/><line class="a" x1="114.77" y1="72.21" x2="114.77" y2="72.21"/><line class="a" x1="114.77" y1="72.01" x2="114.77" y2="71.91"/><line class="a" x1="114.77" y1="71.81" x2="114.77" y2="71.81"/><line class="a" x1="114.77" y1="71.61" x2="114.77" y2="71.51"/><line class="a" x1="114.77" y1="71.31" x2="114.77" y2="71.31"/><line class="a" x1="114.77" y1="71.31" x2="114.77" y2="71.11"/><line class="a" x1="114.77" y1="71.01" x2="114.77" y2="71.01"/><polyline class="a" points="114.77 70.81 114.77 70.81 114.77 70.51"/><line class="a" x1="114.77" y1="70.21" x2="114.77" y2="70.21"/><line class="a" x1="114.77" y1="70.11" x2="114.77" y2="70.01"/><line class="a" x1="114.77" y1="70.01" x2="114.77" y2="69.91"/><line class="a" x1="114.77" y1="69.81" x2="114.77" y2="69.81"/><line class="a" x1="114.77" y1="69.71" x2="114.77" y2="69.71"/><line class="a" x1="114.77" y1="69.61" x2="114.77" y2="69.51"/><line class="a" x1="114.77" y1="69.21" x2="114.77" y2="69.21"/><line class="a" x1="114.77" y1="69.21" x2="114.77" y2="69.11"/><polyline class="a" points="114.77 69.11 114.77 69.01 114.77 68.91"/><line class="a" x1="114.77" y1="68.91" x2="114.77" y2="68.91"/><line class="a" x1="114.77" y1="68.81" x2="114.77" y2="68.81"/><line class="a" x1="114.77" y1="68.81" x2="114.77" y2="68.81"/><line class="a" x1="114.77" y1="68.71" x2="114.77" y2="68.61"/><line class="a" x1="114.77" y1="68.51" x2="114.77" y2="68.51"/><polyline class="a" points="69.07 44.91 69.07 44.91 69.17 44.91 69.17 45.01 69.27 45.01"/><line class="a" x1="69.37" y1="45.01" x2="69.37" y2="45.01"/><polyline class="a" points="69.47 45.01 69.47 45.01 69.47 45.01"/><polyline class="a" points="70.47 45.11 69.77 45.01 69.07 44.91"/><line class="a" x1="71.37" y1="45.11" x2="71.37" y2="45.11"/><polyline class="a" points="71.37 45.11 71.37 45.11 71.47 45.11 71.57 45.11 71.57 45.21 71.57 45.21"/><line class="a" x1="71.87" y1="45.21" x2="71.87" y2="45.21"/><path class="a" d="M217.3,164.7l-.6-.6a6.6,6.6,0,0,1-1.4-5.4l.1-.4" transform="translate(-192.73 -0.09)"/><polyline class="a" points="103.37 161.01 103.07 162.01 102.37 163.41 102.07 163.91 101.37 164.61"/><path class="a" d="M307.5,68.6l1.6,2A63.74,63.74,0,0,1,322,106.4l.1.4" transform="translate(-192.73 -0.09)"/><path class="a" d="M322,109.4l-.1,1.7a64,64,0,0,1-13,37.1l-1.6,2" transform="translate(-192.73 -0.09)"/><line class="a" x1="71.87" y1="45.21" x2="71.87" y2="45.21"/><line class="a" x1="69.07" y1="44.91" x2="69.07" y2="44.91"/><path class="a" d="M193,109.4v-1.6a64.48,64.48,0,0,1,55.9-62.3l1.6-.2" transform="translate(-192.73 -0.09)"/><polyline class="a" points="60.57 44.91 62.67 44.91 64.77 44.81"/><path class="a" d="M215.4,158.3l-1.6-1.4a65,65,0,0,1-20.8-46v-1.5" transform="translate(-192.73 -0.09)"/><polygon class="b" points="178.17 175.71 180.27 167.21 176.07 167.21 178.17 175.71"/><polygon class="c" points="178.17 175.71 180.27 167.21 176.07 167.21 178.17 175.71"/><polygon class="b" points="178.17 44.81 176.07 53.31 180.27 53.31 178.17 44.81"/><polygon class="c" points="178.17 44.81 176.07 53.31 180.27 53.31 178.17 44.81"/><g class="d"><text class="e" transform="translate(175.94 124.94) rotate(-90)">46</text><text class="e" transform="translate(175.94 114.04) rotate(-90)"> </text><text class="e" transform="translate(175.94 111.34) rotate(-90)">m</text><text class="e" transform="translate(175.94 103.14) rotate(-90)">m</text></g><polygon class="b" points="0.37 10.71 8.87 12.81 8.87 8.51 0.37 10.71"/><polygon class="c" points="0.37 10.71 8.87 12.81 8.87 8.51 0.37 10.71"/><polygon class="b" points="129.37 10.71 120.77 8.51 120.77 12.81 129.37 10.71"/><polygon class="c" points="129.37 10.71 120.77 8.51 120.77 12.81 129.37 10.71"/><g class="d"><text class="e" transform="translate(46.04 8.39)">45.5 </text><text class="e" transform="translate(67.84 8.39)">m</text><text class="e" transform="translate(76.04 8.39)">m</text></g><line class="c" x1="66.27" y1="44.81" x2="181.07" y2="44.81"/><line class="c" x1="66.27" y1="175.71" x2="181.07" y2="175.71"/><line class="c" x1="178.17" y1="175.71" x2="178.17" y2="44.81"/><line class="c" x1="0.27" y1="9.11" x2="0.27" y2="123.91"/><line class="c" x1="129.27" y1="7.71" x2="129.27" y2="123.91"/><line class="c" x1="0.27" y1="10.71" x2="129.27" y2="10.71"/></svg>