<svg xmlns="http://www.w3.org/2000/svg" viewBox="0 0 136.64 176.07"><defs><style>.a,.c{fill:none;stroke-linecap:round;stroke-linejoin:round;}.a{stroke:#000;stroke-width:0.54px;}.b,.e{fill:#696969;}.c{stroke:#696969;stroke-width:0.06px;}.d,.e{isolation:isolate;}.e{font-size:9.77px;font-family:ArialMT, Arial;}</style></defs><title>sizes-left</title><line class="a" x1="45.57" y1="175.8" x2="68.27" y2="175.8"/><polyline class="a" points="0.27 111.5 0.27 109.7 0.37 107.8 0.67 104.2"/><line class="a" x1="97.27" y1="80.7" x2="97.27" y2="80.7"/><path class="a" d="M.3,111.8l.1,1.6a68,68,0,0,0,44.1,62l1.2.4" transform="translate(-0.03 0)"/><line class="a" x1="136.37" y1="111.8" x2="136.37" y2="111.5"/><path class="a" d="M130.6,92.7l-.4-1.2c-7.6-27-32.7-46.1-60.7-46.6H68.3" transform="translate(-0.03 0)"/><line class="a" x1="107.37" y1="121" x2="107.37" y2="121"/><line class="a" x1="38.87" y1="137.7" x2="38.77" y2="137.7"/><line class="a" x1="97.47" y1="80.9" x2="97.47" y2="80.9"/><path class="a" d="M5.9,92.4l.3-1.1A64.67,64.67,0,0,1,67.1,44.9h1.2" transform="translate(-0.03 0)"/><path class="a" d="M68.3,175.8H91a68.19,68.19,0,0,0,45.4-62.5v-1.6" transform="translate(-0.03 0)"/><path class="a" d="M136.4,111.5v-1.8c-.3-6.6-.9-11.2-5.2-16.4l-.5-.6" transform="translate(-0.03 0)"/><line class="a" x1="0.27" y1="111.5" x2="0.27" y2="111.8"/><path class="a" d="M76.5,149.4l1.8-.4,1.8-.5.9-.3a40.85,40.85,0,0,0,27.9-43.4l-.2-1.9-.3-1.7A41,41,0,0,0,62.8,69l-.9.1-1.8.3-1.8.4-1.8.5A41,41,0,0,0,27.6,113l.1,1,.2,1.8A40.84,40.84,0,0,0,72.8,150l1.8-.2,1.9-.4" transform="translate(-0.03 0)"/><line class="a" x1="107.27" y1="121.5" x2="107.17" y2="121.6"/><line class="a" x1="38.97" y1="137.9" x2="38.97" y2="137.7"/><path class="a" d="M68.3,169.4H66l-2.3-.1a60.5,60.5,0,0,1-47.1-26.6l-1-1.4-1-1.5C6.7,127,2.3,110.2,5.1,95.2l.3-1.3.4-1.3" transform="translate(-0.03 0)"/><path class="a" d="M130.7,92.4l.4,1.3.2,1.3c3,14.8-1.6,32-9.4,44.6l-1,1.5-1,1.4a60.23,60.23,0,0,1-47.1,26.6l-2.3.1H68.2" transform="translate(-0.03 0)"/><path class="a" d="M.7,104.2l.1-.7a21.18,21.18,0,0,1,4.4-9.9l.5-.6" transform="translate(-0.03 0)"/><polygon class="b" points="0.77 10.7 9.27 12.8 9.27 8.6 0.77 10.7"/><polygon class="c" points="0.77 10.7 9.27 12.8 9.27 8.6 0.77 10.7"/><polygon class="b" points="135.87 10.7 127.37 8.6 127.37 12.8 135.87 10.7"/><polygon class="c" points="135.87 10.7 127.37 8.6 127.37 12.8 135.87 10.7"/><g class="d"><text class="e" transform="translate(49.56 8.39)">47</text><text class="e" transform="translate(60.46 8.39)">.</text><text class="e" transform="translate(63.16 8.39)">7</text><text class="e" transform="translate(68.66 8.39)"> </text><text class="e" transform="translate(71.36 8.39)">m</text><text class="e" transform="translate(79.56 8.39)">m</text></g><line class="c" x1="0.67" y1="102.8" x2="0.67" y2="7.8"/><line class="c" x1="135.87" y1="102.8" x2="135.87" y2="7.8"/><line class="c" x1="0.67" y1="10.7" x2="135.87" y2="10.7"/></svg>