<svg id="Layer_1" xmlns="http://www.w3.org/2000/svg" viewBox="0 0 57.9 73.6"><style>.st0{fill:#0090ff}</style><path class="st0" d="M29 65c-6.1 0-12.2-.6-18.3-1.7l-.4-.1v-56l.4-.1C22.8 5 35.1 5 47.2 7.1l.4.1v56l-.4.1C41.2 64.4 35.1 65 29 65zm-17.7-2.6c11.7 2.2 23.6 2.2 35.3 0V8C34.9 6 23 6 11.3 8v54.4z"/><path class="st0" d="M11.3 7.4h-1c0-.3.2-7.3 18.7-7.3 10.6 0 15.2 2.3 17.1 4.3 1.5 1.6 1.6 3 1.6 3h-1c0-.1-.3-6.3-17.7-6.3S11.3 7.3 11.3 7.4zM29 70.3c-18.5 0-18.7-7-18.7-7.3h1c0 .1.3 6.3 17.7 6.3 17.3 0 17.7-6.2 17.7-6.3h1c-.1.3-.3 7.3-18.7 7.3z"/><path class="st0" d="M29 73.5c-8.6 0-8.7-3.7-8.7-3.9h1s.2 2.9 7.7 2.9 7.7-2.9 7.7-2.9h1c0 .1-.1 3.9-8.7 3.9zM33.6 22h-9.2c-1.6 0-3-1.3-3-3s1.3-3 3-3h9.2c1.6 0 3 1.3 3 3s-1.4 3-3 3zm-9.2-4.9c-1.1 0-2 .9-2 2s.9 2 2 2h9.2c1.1 0 2-.9 2-2s-.9-2-2-2h-9.2z"/><path class="st0" d="M28.7 18.1h.6v1h-.6z"/><path transform="rotate(-44.291 27.013 19.31)" class="st0" d="M26.7 18.8h.6v1h-.6z"/><path transform="rotate(-45.725 30.915 19.31)" class="st0" d="M30.4 19h1v.6h-1z"/><path class="st0" d="M35.9 57.5c-1 0-1.9-.8-1.9-1.9s.8-1.9 1.9-1.9 1.9.8 1.9 1.9-.9 1.9-1.9 1.9zm0-2.8c-.5 0-.9.4-.9.9s.4.9.9.9.9-.4.9-.9-.4-.9-.9-.9zM22 57.5c-1 0-1.9-.8-1.9-1.9s.8-1.9 1.9-1.9 1.9.8 1.9 1.9-.8 1.9-1.9 1.9zm0-2.8c-.5 0-.9.4-.9.9s.4.9.9.9.9-.4.9-.9-.4-.9-.9-.9zM29 59c-1.8 0-3.4-1.5-3.4-3.3 0-1.8 1.5-3.4 3.4-3.4s3.4 1.5 3.4 3.4c-.1 1.8-1.6 3.3-3.4 3.3zm0-5.7c-1.3 0-2.4 1.1-2.4 2.4S27.7 58 29 58c1.3 0 2.4-1.1 2.4-2.3s-1.1-2.4-2.4-2.4z"/></svg>