<svg xmlns="http://www.w3.org/2000/svg" viewBox="0 0 85.5 45.5"><defs><style>.a{fill:#0090ff}</style></defs><title>choose-battery</title><path class="a" d="M67.56 7.03H7.94a.82.82 0 0 0-.81.81v29.81a.82.82 0 0 0 .82.82h59.61a.81.81 0 0 0 .81-.74V7.85a.82.82 0 0 0-.81-.82zM22.03 36.84H8.75V8.66h13.28zm14.9 0H23.66V8.66h13.28zm14.9 0H38.56V8.66h13.28zm14.9 0H53.47V8.66h13.28z"/><path class="a" d="M85.5 11.75a.75.75 0 0 0-.75-.75H75.5V3.88A3.82 3.82 0 0 0 71.75 0h-68A3.82 3.82 0 0 0 0 3.88v37.71a3.83 3.83 0 0 0 3.75 3.91h68a3.83 3.83 0 0 0 3.75-3.91V34.5h9.25a.75.75 0 0 0 .75-.75zM74 41.59A2.31 2.31 0 0 1 71.75 44h-68a2.31 2.31 0 0 1-2.25-2.41V3.88A2.29 2.29 0 0 1 3.75 1.5h68A2.29 2.29 0 0 1 74 3.88zM84 33h-8.5V12.5H84z"/></svg>