<svg xmlns="http://www.w3.org/2000/svg" viewBox="0 0 39.4 79.4"><defs><style>.a{fill:#0090ff;stroke:#0090ff;stroke-miterlimit:10;stroke-width:.4px}</style></defs><title>choose-ios</title><path class="a" d="M33.7.2h-28A5.55 5.55 0 0 0 .2 5.7v68a5.55 5.55 0 0 0 5.5 5.5h28a5.55 5.55 0 0 0 5.5-5.5v-68A5.55 5.55 0 0 0 33.7.2zm4.5 73.5a4.48 4.48 0 0 1-4.5 4.5h-28a4.48 4.48 0 0 1-4.5-4.5v-68a4.48 4.48 0 0 1 4.5-4.5h28a4.48 4.48 0 0 1 4.5 4.5z"/><path class="a" d="M3.67 9.2a.46.46 0 0 0-.47.5v60a.46.46 0 0 0 .47.5h32.06a.46.46 0 0 0 .47-.5v-60a.46.46 0 0 0-.47-.5zm31.59 60H4.14v-59h31.12zM19.7 71.7a2.5 2.5 0 1 0 2.5 2.5 2.54 2.54 0 0 0-2.5-2.5zm0 4a1.5 1.5 0 1 1 1.5-1.5 1.54 1.54 0 0 1-1.5 1.5zM16.6 6.2h6a.5.5 0 1 0 0-1h-6a.47.47 0 0 0-.5.5.54.54 0 0 0 .5.5z"/></svg>