<svg xmlns="http://www.w3.org/2000/svg" viewBox="0 0 72.73 79.1"><defs><style>.a{fill:#0090ff}</style></defs><title>choose-notifications</title><path class="a" d="M15.57 68.99h10.14v.45a10.78 10.78 0 0 0 7 9 10.74 10.74 0 0 0 3.68.64 10.75 10.75 0 0 0 10.75-9.64v-.45h19.52a6.07 6.07 0 0 0 6-4.8 8 8 0 0 0-3.45-7.37 13.73 13.73 0 0 1-4.74-6.18l-.1-.35a75.18 75.18 0 0 1-2.4-11.75c-1.6-10.3-3.37-21.95-13.93-26.92l-.11-.06a31.42 31.42 0 0 0-5.61-1.66l-.61-.13.26-.53a6.22 6.22 0 0 0 .59-2.59A6.62 6.62 0 0 0 35.95.03a6.62 6.62 0 0 0-6.62 6.62 6.23 6.23 0 0 0 .57 2.59l.26.57-.62.13a29.86 29.86 0 0 0-4.66 1.29c-11.33 4.61-12.91 16.62-14.3 27.21a75 75 0 0 1-2.15 11.73l-.05.12a13.73 13.73 0 0 1-4.86 6.52 8 8 0 0 0-3.45 7.38 5.92 5.92 0 0 0 3.88 4.43 6.19 6.19 0 0 0 2.12.38h8.6a.91.91 0 0 0 .29-.05l.15-.05h.15a.93.93 0 0 0 .31.09zm29.6.57a8.81 8.81 0 0 1-17.45 0l-.08-.57h17.61zm-30-2.4h-.15a1 1 0 0 0-.29-.05h-8.6a4.16 4.16 0 0 1-4.1-3.18 6.13 6.13 0 0 1 2.6-5.45 15.76 15.76 0 0 0 5.56-7.32 1.65 1.65 0 0 0 .11-.26 75.45 75.45 0 0 0 2.25-12.15c1.33-10.62 2.77-21.51 13.07-25.78a31 31 0 0 1 4.88-1.29 2 2 0 0 0 1.52-1.12 1.94 1.94 0 0 0-.2-1.85 4.34 4.34 0 0 1-.58-2.1 4.69 4.69 0 0 1 9.37 0 4.38 4.38 0 0 1-.56 2.07 2 2 0 0 0-.22 1.87 1.89 1.89 0 0 0 1.12 1 2.3 2.3 0 0 0 .37.1 32.22 32.22 0 0 1 5.84 1.67c9.67 4.51 11.29 15.15 12.86 25.44a76.63 76.63 0 0 0 2.49 12.11l.06.11a15.52 15.52 0 0 0 5.59 7.4 6.15 6.15 0 0 1 2.6 5.45 4.16 4.16 0 0 1-4.1 3.18H15.57a1 1 0 0 0-.29.05z"/></svg>