<svg xmlns="http://www.w3.org/2000/svg" viewBox="0 0 43.2 75.93"><defs><style>.a{fill:#0090ff}</style></defs><title>choose-siri</title><path class="a" d="M0 36.83v-.6a1.1 1.1 0 0 1 1-1.1 1 1 0 0 1 1 1.1v.5a19.6 19.6 0 0 0 39.2.1v-.3a.94.94 0 0 1 1-1 .92.92 0 0 1 1 .9v.3a21.66 21.66 0 0 1-20.7 21.6l.1 15.6h9.5a1 1 0 0 1 1 1 1.08 1.08 0 0 1-1 1H11.5a1 1 0 0 1-1-1 1.08 1.08 0 0 1 1-1h9.1l-.1-15.6A21.54 21.54 0 0 1 0 36.83zm7.56.63V14.04a14 14 0 0 1 14-14h.11a14 14 0 0 1 14 14v23.42a14 14 0 0 1-14 14h-.11a14 14 0 0 1-14.01-14zm2.25 0a11.67 11.67 0 0 0 11.67 11.67h.11a11.67 11.67 0 0 0 11.68-11.67V14.04A11.67 11.67 0 0 0 21.59 2.36h-.11A11.67 11.67 0 0 0 9.8 14.04z"/></svg>