<svg xmlns="http://www.w3.org/2000/svg" width="79.4" height="47.1" viewBox="0 0 79.4 47.1"><title>eye-icon</title><path d="M39.7 11.5a11.36 11.36 0 0 0-5.2 1.2 4 4 0 0 1-2.8 6.8 3.63 3.63 0 0 1-2.8-1.2 11.36 11.36 0 0 0-1.2 5.2 12 12 0 1 0 12-12z" fill="#0090ff"/><path d="M39.7 0A45.49 45.49 0 0 0 .4 22.8l-.4.7.4.8a45.27 45.27 0 0 0 78.6 0l.4-.8-.4-.8A45.6 45.6 0 0 0 39.7 0zM3.4 23.5A42.82 42.82 0 0 1 30.7 4a21.46 21.46 0 0 0 0 39A43.08 43.08 0 0 1 3.4 23.5zm17.8 0A18.5 18.5 0 1 1 39.7 42a18.52 18.52 0 0 1-18.5-18.5zM48.7 43a21.46 21.46 0 0 0 0-39A43.08 43.08 0 0 1 76 23.5 43.08 43.08 0 0 1 48.7 43z" fill="#0090ff"/></svg>