<svg id="Layer_1" xmlns="http://www.w3.org/2000/svg" viewBox="0 0 57.9 73.6"><style>.st0,.st1{fill:#0090ff;stroke:#0090ff;stroke-width:.5;stroke-miterlimit:10}.st1{fill:none;stroke-width:.75}</style><path class="st0" d="M54.2 63.8h-7.7V43.4h5v-4.6l-1-1.1h-4L34.7 21.8V8h1.5V4.6H21.7V8h1.5v13.6H23L11.5 37.7H7.3l-1 1v4.7h5v20.4H.1V69h57.7v-5.2h-3.6zM3.7 68.5H.5v-4.3h3.1v4.3zm3.6 0H4.1v-4.3h3.1v4.3zm3.5 0H7.7v-4.3h3.1v4.3zm11.4-61V5h13.6v2.5H22.2zm10.2 5.9V8h1.8v13.6H23.7V8h1.8v5.4h6.9zm-6.6-.5V8H32v5l-6.2-.1zm-2.5 9.2h11L46 37.7H11.9l11.4-15.6zM6.8 43v-4.1l.7-.8h42.8l.8.8v4L6.8 43zm8.2.4v20.3h-3.1V43.4H15zm-.6 25.2h-3.1v-4.4h3.1v4.4zm3.6 0h-3.1v-4.4H18v4.4zm3.6 0h-3.1v-4.4h3.1v4.4zm3.6 0H22v-4.4h3.1l.1 4.4zm3.5 0h-3.1v-4.4h3.1v4.4zm3.6 0h-3.1v-4.4h3.1v4.4zm3.6 0h-3.1v-4.4h3.1v4.4zm3.6 0h-3.1v-4.4h3.1v4.4zm0-4.8H15.4V43.4h27.1v20.3l-3 .1zm3.6 4.8H40v-4.4h3.1v4.4zm.4-4.8H43V43.4h3.1v20.3l-2.6.1zm3.2 4.8h-3.1v-4.4h3.1v4.4zm3.5 0h-3.1v-4.4h3.1v4.4zm3.6 0h-3.1v-4.4h3.1v4.4zm3.6 0h-3.1v-4.4h3.1v4.4z"/><path class="st1" d="M33.2 56.6c-.5-.4-.9-1-1.1-1.6-.4-1-.2-2.1.5-3-.8.3-1.6.8-2.2 1.4l-.2.2v-.5c.2-.9.1-1.9-.3-2.8-.4-.9-1-1.7-1.8-2.3.1.8.2 4.1-1.2 6-1.7 2.1.5 3.3.8 4 .2.4 0 1.3-.6 1.3-1.8-.3-3.2-1.9-3.4-3.7-.5.9-.2 4.2 2.4 6.1.4.3.8.5 1.2.7l.8.3c.4.1.8.1 1.2.2h.1c1.4 0 3.7-.7 4.5-2.3.5-1.3.3-3-.7-4z"/></svg>