<svg id="Layer_1" xmlns="http://www.w3.org/2000/svg" viewBox="0 0 57.9 73.6"><style>.st0,.st1{fill:#0090ff;stroke:#0090ff;stroke-width:.1;stroke-miterlimit:10}.st1{fill:none;stroke-width:.6}</style><path class="st0" d="M42.4 23.7h-6.1c.3-.4.5-.8.5-1.3 0-1.1-.9-2.1-2.1-2.1h-1.2V3c0-1.6-1.3-2.9-2.9-2.9h-3.3c-1.6 0-2.9 1.3-2.9 2.9v17.4h-1.2c-1.1 0-2.1.9-2.1 2.1 0 .5.2.9.5 1.3h-6.1c-1.6 0-2.9 1.3-2.9 2.9v42.6c0 1.6 1.3 2.9 2.9 2.9h.9c0 .7.6 1.3 1.3 1.3h3.5c.7 0 1.3-.6 1.3-1.3h13c0 .7.6 1.3 1.3 1.3h3.5c.7 0 1.3-.6 1.3-1.3h.9c1.6 0 2.9-1.3 2.9-2.9V26.7c0-1.7-1.4-3-3-3zM27.3.8h3.3c1.2 0 2.2 1 2.2 2.1v1.4h-7.6V3c0-1.2.9-2.2 2.1-2.2zm-2.1 4.5h7.6v3.5h-7.6V5.3zm0 4.4h7.6v3.5h-7.6V9.7zm0 4.4h7.6v3.5h-7.6v-3.5zm0 4.4h7.6v1.8h-7.6v-1.8zm-3.3 3.9c0-.7.6-1.3 1.3-1.3h11.5c.7 0 1.3.6 1.3 1.3 0 .7-.6 1.3-1.3 1.3H23.2c-.7 0-1.3-.5-1.3-1.3zm-.2 49.8c0 .3-.2.5-.5.5h-3.5c-.3 0-.5-.2-.5-.5h4.5zm19.1 0c0 .3-.2.5-.5.5h-3.5c-.3 0-.5-.2-.5-.5h4.5c-.1 0 0 0 0 0zm3.8-3c0 1.2-1 2.2-2.1 2.2h-27c-1.2 0-2.1-1-2.1-2.2V26.7c0-1.2 1-2.1 2.1-2.1h26.9c1.2 0 2.2 1 2.2 2.1v42.5z"/><path class="st0" d="M25.7 65.5c-.6 0-1.1.5-1.1 1.2 0 .6.5 1.2 1.1 1.2.6 0 1.1-.5 1.1-1.2s-.5-1.2-1.1-1.2zm0 1.5c-.2 0-.4-.2-.4-.4s.2-.4.4-.4.4.2.4.4c-.1.2-.2.4-.4.4zM29 65.5c-.6 0-1.1.5-1.1 1.2 0 .6.5 1.2 1.1 1.2.6 0 1.1-.5 1.1-1.2s-.5-1.2-1.1-1.2zm0 1.5c-.2 0-.4-.2-.4-.4s.2-.4.4-.4.4.2.4.4-.2.4-.4.4zM32.3 65.5c-.6 0-1.1.5-1.1 1.2 0 .6.5 1.2 1.2 1.2.6 0 1.1-.5 1.1-1.2s-.6-1.2-1.2-1.2zm0 1.5c-.2 0-.4-.2-.4-.4s.2-.4.4-.4.4.2.4.4c-.1.2-.2.4-.4.4zM26.3 62.2h5.3c.7 0 1.3-.6 1.3-1.3s-.6-1.3-1.3-1.3h-5.3c-.7 0-1.3.6-1.3 1.3s.6 1.3 1.3 1.3zm0-1.7h5.3c.3 0 .5.2.5.5s-.2.5-.5.5h-5.3c-.3 0-.5-.2-.5-.5s.3-.5.5-.5zM37.5 39.7h-4.9c.1-.2.2-.4.2-.7 0-.7-.6-1.3-1.3-1.3h-5.3c-.7 0-1.3.6-1.3 1.3 0 .2.1.5.2.7h-4.9c-1.6 0-2.9 1.3-2.9 2.9v10.8c0 1.6 1.3 2.9 2.9 2.9h17.1c1.6 0 2.9-1.3 2.9-2.9V42.6c.3-1.6-1.1-2.9-2.7-2.9zm-11.2-1.2h5.3c.3 0 .5.2.5.5s-.2.5-.5.5h-5.3c-.3 0-.5-.2-.5-.5s.3-.5.5-.5zm13.4 14.9c0 1.2-1 2.2-2.1 2.2H20.4c-1.2 0-2.1-1-2.1-2.2V42.6c0-1.2 1-2.2 2.1-2.2h17.1c1.2 0 2.2 1 2.2 2.1v10.9z"/><path class="st0" d="M37.5 57.5H20.4c-1.6 0-2.9 1.3-2.9 2.9v6.1c0 1.6 1.3 2.9 2.9 2.9h17.1c1.6 0 2.9-1.3 2.9-2.9v-6.1c.1-1.6-1.3-2.9-2.9-2.9zm2.2 9c0 1.2-1 2.2-2.1 2.2H20.4c-1.2 0-2.1-1-2.1-2.2v-6.1c0-1.2 1-2.2 2.1-2.2h17.1c1.2 0 2.2 1 2.2 2.1v6.2z"/><path class="st1" d="M31.5 49.2c-.4-.3-.6-.7-.8-1.2-.3-.7-.1-1.6.3-2.2-.6.2-1.2.5-1.6 1l-.1.2v-.4c.1-.7 0-1.4-.2-2.1-.3-.7-.8-1.3-1.4-1.7 0 .6.2 3.1-.9 4.4-1.2 1.6.4 2.4.6 2.9.1.3 0 1-.5 1-1.4-.3-2.4-1.4-2.5-2.8-.4.6-.1 3.1 1.7 4.5.3.2.6.4.9.5l.6.2c.3.1.6.1.9.1 1.4.1 2.7-.6 3.5-1.7.5-.8.3-1.9-.5-2.7z"/></svg>