<svg id="Layer_1" xmlns="http://www.w3.org/2000/svg" viewBox="0 0 57.9 73.6"><style>.st0{fill:#0090ff}</style><path class="st0" d="M38.1 52.1v1.1c0 .1.1.2.3.3H38.7c.1 0 .2-.1.2-.3V53v-1.2-2.5c0-.1 0-.1-.1-.2l-.1-.1c-.1-.1-.3-.1-.4-.1-.1 0-.1 0-.1.1l-.1.1V50.7h-2.3l-.4-2.1v-.1c-.1-.1-.2-.2-.3-.2H32v-1.2h2.5c.5 0 .9-.1 1.3-.2 1.5-.5 2.5-1.9 2.7-3.5V43c-.3-7.1-.5-14.5-.9-22v-.3c0-.2-.1-.5-.2-.7-.4-1-1.3-1.7-2.4-1.8h-1.2v-1.6-.1c0-.1-.1-.2-.3-.3h-9.6c-.1 0-.2.1-.3.3V18.2h-1.2c-.2 0-.5.1-.7.1-1 .4-1.8 1.3-1.9 2.4v.3c-.1 2.5-.2 4.9-.3 7.4-.2 4.9-.4 9.9-.5 14.8 0 .5.1.9.2 1.3.4 1.2 1.3 2.1 2.5 2.5.4.1.8.2 1.3.2h2.5v1.2h-3c-.1 0-.3.2-.3.3L21 54.5v.2c0 .2.1.3.3.3H22.5v2c0 .1.1.2.3.3H34.6c.1 0 .2-.1.3-.3v-2.1H36.1l.3-.3v-.1l-.5-2.8H38l.1.4zm-6.6-9c-.1-.7-.5-1.3-1-1.8l-.2-.2-.4-.3.3-.4c.4-.4.6-1 .7-1.6v-.6c0-.2-.1-.4-.1-.6 0-.2-.1-.4-.2-.6-.2-.6-.5-1.1-.7-1.7-.2-.5-.5-.9-.8-1.4H29l-.1-.1h-.1c-.1-.1-.2-.1-.4 0-.1 0-.1.1-.1.1-.3.4-.5.9-.8 1.4-.3.6-.6 1.2-.8 1.8-.1.2-.1.4-.2.6-.1.2-.1.4-.1.6v.6c.1.6.3 1.1.7 1.6l.3.4-.4.3c-.5.3-.8.8-1 1.3-.1.3-.2.5-.2.8v.5l.1.7-.6-.2-.3-.1c-1.1-.5-2-1.4-2.2-2.6-.1-.4-.1-.8-.1-1.3v-.2c.1-.3.1-.6.2-.9V39c.2-.9.4-1.9.6-2.8.4-2 .9-4.1 1.4-6.6v-.2l.4-1.8.1-.3h6.2l.1.4c1.1 4.8 1.9 8.5 2.6 12v.1c0 .2.1.3.1.5.1.4.1.8 0 1.3-.2 1.3-1.1 2.4-2.4 2.8l-.6.2.1-.7v-.8zm-3.3-1.5c.2-.1.4-.1.6-.1.9 0 1.7.7 1.8 1.6v1l-.1.3H27l-.1-.3V44c-.1-.3-.1-.6 0-.9 0-.2.1-.5.2-.7.3-.3.6-.6 1.1-.8zm-.6-2c0-.1-.1-.1-.1-.2s-.1-.2-.1-.3c0-.1 0-.2-.1-.3v-.4c0-.1 0-.3.1-.4 0-.2.1-.3.1-.5s.1-.4.2-.6.2-.5.3-.7l.2-.5.4-.8.4.8c.1.3.3.5.4.8s.2.5.3.7.2.5.2.7c0 .2.1.3.1.5v.4c0 .3-.1.6-.3.9l-.1.1c-.2.3-.5.5-.8.5h-.4c-.3 0-.6-.3-.8-.7zm.4 5.7h3l.1.4v2.6h-4.7v-3H28zm-3.5-28.2h8.4v3.4h-8.4v-3.4zm1 29.3h-2.8c-.3 0-.7-.1-1-.2-1.2-.5-2-1.7-1.9-2.9.2-7.8.5-15.3.9-22.3 0-.2.1-.4.1-.6.2-.5.7-.9 1.2-1.1.2-.1.4-.1.6-.1h1.1V21.1c0 .1.1.2.2.2h9.6c.1 0 .2-.1.2-.2v-2h.9c.2 0 .5 0 .7.1.6.2 1 .6 1.2 1.2.1.2.1.4.1.6.4 7.5.6 15.3.8 22.1v.1c0 .3 0 .7-.1 1-.3.9-.9 1.6-1.7 1.9-.3.1-.7.2-1 .2h-2.7v-1.1l.3-.1.3-.1c1.5-.6 2.5-1.8 2.8-3.4.1-.3.1-.7.1-1.1v-.7c-.8-4.1-1.7-8-2.4-11.3l-.4-1.9v-.1c-.1-.1-.1-.2-.3-.2h-7.1c-.1 0-.2.1-.3.2v.1l-.1.4c-1 4.5-1.8 8.3-2.5 11.8l-.3 1.1c0 .2-.1.3-.1.5-.2 2 1 3.9 2.9 4.6l.3.1.3.1.1 1.2zm8.6 10.1H23.4V55h10.7v1.5zM22 54.2l.9-4.9h11.6l.9 4.9H22z"/></svg>