<svg id="Layer_1" xmlns="http://www.w3.org/2000/svg" viewBox="0 0 57.9 73.6"><style>.st0{fill:#0090ff}.st1{fill:none;stroke:#0090ff;stroke-miterlimit:10}</style><path class="st0" d="M9.4 18.8v36h39v-36h-39zm38.2.9v6.7H10.3v-6.7h37.3zM10.3 53.9V27.3h37.2v26.6H10.3z"/><path class="st0" d="M40 24.3c-.8 0-1.4-.6-1.4-1.4s.6-1.4 1.4-1.4 1.4.6 1.4 1.4c0 .8-.6 1.4-1.4 1.4zm0-2c-.3 0-.5.2-.5.5s.2.5.5.5.5-.2.5-.5c0-.2-.2-.5-.5-.5zM36 24.3c-.8 0-1.4-.6-1.4-1.4s.6-1.4 1.4-1.4 1.4.6 1.4 1.4c0 .8-.6 1.4-1.4 1.4zm0-2c-.3 0-.5.2-.5.5s.2.5.5.5.5-.2.5-.5c0-.2-.2-.5-.5-.5zM22.1 24.3c-.8 0-1.4-.6-1.4-1.4s.6-1.4 1.4-1.4c.8 0 1.4.6 1.4 1.4 0 .8-.7 1.4-1.4 1.4zm0-2c-.3 0-.5.2-.5.5s.2.5.5.5.5-.2.5-.5c0-.2-.3-.5-.5-.5zM17.9 24.3c-.8 0-1.4-.6-1.4-1.4s.6-1.4 1.4-1.4c.8 0 1.4.6 1.4 1.4.1.8-.6 1.4-1.4 1.4zm0-2c-.3 0-.5.2-.5.5s.2.5.5.5.5-.2.5-.5c.1-.2-.2-.5-.5-.5zM33.3 24.3h-8.6v-2.9h8.6v2.9zm-7.7-.9h6.8v-1.1h-6.8v1.1zM13 29.4h32.1v.9H13zM45 51.3H13V32.5h32v18.8zm-31.1-.9h30.2v-17H13.9v17z"/><path class="st1" d="M23.7 37.7c-4 3.1 3.9 5.1-.7 8.4M29.2 37.7c-4 3.1 3.9 5.1-.7 8.4M34.7 37.7c-4 3.1 3.9 5.1-.7 8.4"/></svg>