<svg id="Layer_1" xmlns="http://www.w3.org/2000/svg" viewBox="0 0 57.9 73.6"><style>.st0{fill:none;stroke:#0090ff;stroke-width:.75;stroke-miterlimit:10}.st1{fill:#0090ff}</style><circle class="st0" cx="39.9" cy="56.2" r="1.5"/><circle class="st0" cx="36.1" cy="56.2" r=".8"/><circle class="st0" cx="33.1" cy="56.2" r=".8"/><path class="st1" d="M16.8 53.1v6.3h13.5v-6.3H16.8zm12.6 5.3H17.7V54h11.7v4.4z"/><path class="st1" d="M45.2 14.4c.1-1.3-1-2.5-2.3-2.5h-9.3V5.1c.1-2.6-1.9-4.9-4.5-5-2.6.1-4.6 2.4-4.5 5v6.8h-9.4c-1.3.1-2.4 1.2-2.3 2.5v47.4c-.1 1.3 1 2.5 2.3 2.5h3.2v9.2h.9v-9.2h2.8v9.2h.9v-9.2h8.2v9.2h.9v-9.2H35v9.2h.9v-9.2h2.8v9.2h.9v-9.2h3.2c1.3-.1 2.4-1.2 2.3-2.5l.1-47.4zM25.3 5.1C25.2 3 26.9 1.1 29 1c2.1.1 3.8 2 3.6 4.1v6.8h-7.3V5.1zm18.9 56.7c0 .8-.6 1.5-1.4 1.6H15.1c-.8-.1-1.4-.8-1.4-1.6v-12h30.6v12h-.1zm0-12.9H13.7V14.4c-.1-.8.6-1.5 1.4-1.6h27.8c.8.1 1.5.8 1.4 1.6l-.1 34.5z"/><path class="st1" d="M24.9 43.3h8.2v.9h-8.2z"/></svg>